<?xml version="1.0" encoding="UTF-8" standalone="no"?>
<!-- Generator: Adobe Illustrator 16.0.0, SVG Export Plug-In . SVG Version: 6.00 Build 0)  -->

<svg
   xmlns:dc="http://purl.org/dc/elements/1.1/"
   xmlns:cc="http://creativecommons.org/ns#"
   xmlns:rdf="http://www.w3.org/1999/02/22-rdf-syntax-ns#"
   xmlns:svg="http://www.w3.org/2000/svg"
   xmlns="http://www.w3.org/2000/svg"
   xmlns:sodipodi="http://sodipodi.sourceforge.net/DTD/sodipodi-0.dtd"
   xmlns:inkscape="http://www.inkscape.org/namespaces/inkscape"
   version="1.1"
   id="Capa_1"
   x="0px"
   y="0px"
   width="16"
   height="16"
   viewBox="0 0 15.999999 15.999999"
   xml:space="preserve"
   inkscape:version="0.91 r13725"
   sodipodi:docname="arrowcoin.svg"
   inkscape:export-filename="/home/acmt/Documentos/profesiaj/arandu/django/arandu2/portal/static/img/arrowcoin.png"
   inkscape:export-xdpi="90"
   inkscape:export-ydpi="90"><metadata
     id="metadata4431"><rdf:RDF><cc:Work
         rdf:about=""><dc:format>image/svg+xml</dc:format><dc:type
           rdf:resource="http://purl.org/dc/dcmitype/StillImage" /><dc:title></dc:title></cc:Work></rdf:RDF></metadata><defs
     id="defs4429" /><sodipodi:namedview
     pagecolor="#ffffff"
     bordercolor="#666666"
     borderopacity="1"
     objecttolerance="10"
     gridtolerance="10"
     guidetolerance="10"
     inkscape:pageopacity="0"
     inkscape:pageshadow="2"
     inkscape:window-width="1366"
     inkscape:window-height="768"
     id="namedview4427"
     showgrid="false"
     showguides="false"
     fit-margin-top="0"
     fit-margin-left="0"
     fit-margin-right="0"
     fit-margin-bottom="0"
     inkscape:zoom="16.641795"
     inkscape:cx="12.175571"
     inkscape:cy="8.8306373"
     inkscape:window-x="0"
     inkscape:window-y="0"
     inkscape:window-maximized="0"
     inkscape:current-layer="g4453" /><g
     id="g4389"
     style="fill:#aa4400"
     transform="translate(4.704705,-570.65987)"><g
       id="g4391"
       style="fill:#aa4400"><g
         id="g4437"><g
           id="g4453"
           transform="matrix(0.03096095,0.00815294,0.00815294,0.03096095,-8.1378866,567.43385)"><path
             d="m 576.627,126.403 -111.895,0 c -5.071,0 -9.162,-4.109 -9.141,-9.18 l 0.492,-112.47 c 0.021,-5.07 -2.867,-6.273 -6.45,-2.689 l -36.436,36.441 c -3.586,3.586 -6.49,10.6 -6.49,15.67 l 0,111.895 c 0,5.07 4.109,9.18 9.181,9.18 l 111.895,0 c 5.07,0 12.087,-2.907 15.67,-6.49 l 35.863,-35.863 c 3.587,-3.587 2.381,-6.494 -2.689,-6.494 z"
             id="path4393"
             style="fill:#aa4400;stroke:#000000;stroke-width:10;stroke-miterlimit:4;stroke-dasharray:none"
             inkscape:connector-curvature="0" /><path
             d="m 8.171,581.575 209.772,-29.967 c 5.019,-0.716 5.465,-3.241 0.998,-5.637 l -99.915,-36.956 261.877,-261.877 81.775,-6.08 c 5.055,-0.376 12.06,-3.586 15.646,-7.173 l 35.863,-35.863 c 3.587,-3.586 2.381,-6.49 -2.689,-6.49 l -111.895,0 c -5.07,0 -9.161,-4.109 -9.14,-9.18 l 0.492,-112.47 c 0.021,-5.071 -2.867,-6.273 -6.45,-2.69 l -36.436,36.436 c -3.586,3.586 -6.796,10.59 -7.173,15.646 l -6.08,81.779 L 72.939,462.93 35.983,363.015 c -2.396,-4.468 -4.921,-4.021 -5.637,0.997 L 0.38,573.784 c -0.715,5.019 2.773,8.507 7.791,7.791 z"
             id="path4395"
             style="fill:#aa4400;stroke:#000000;stroke-width:10;stroke-miterlimit:4;stroke-dasharray:none"
             inkscape:connector-curvature="0" /><path
             style="fill:#b3b3b3;stroke:#000000;stroke-width:10.04412249;stroke-miterlimit:4;stroke-dasharray:none"
             id="path4433"
             d="m 8.171,581.575 209.772,-29.967 c 5.019,-0.716 5.465,-3.241 0.998,-5.637 L 86.705378,495.9241 35.983,363.015 c -2.396,-4.468 -4.921,-4.021 -5.637,0.997 L 0.38,573.784 c -0.715,5.019 2.773,8.507 7.791,7.791 z"
             inkscape:connector-curvature="0"
             sodipodi:nodetypes="cccccccc" /><path
             sodipodi:nodetypes="cccccc"
             inkscape:connector-curvature="0"
             d="m 15.547497,575.10144 181.378493,-27.9109 c 3.66973,-0.52352 3.99583,-2.36972 0.7297,-4.12159 l -96.6864,-36.59268 -91.11832,62.92864 c -0.522785,3.66973 2.027528,6.22004 5.696527,5.69653 z"
             id="path4435"
             style="fill:#cccccc" /></g></g></g></g><g
     id="g4397"
     transform="translate(4.704705,-570.65987)" /><g
     id="g4399"
     transform="translate(4.704705,-570.65987)" /><g
     id="g4401"
     transform="translate(4.704705,-570.65987)" /><g
     id="g4403"
     transform="translate(4.704705,-570.65987)" /><g
     id="g4405"
     transform="translate(4.704705,-570.65987)" /><g
     id="g4407"
     transform="translate(4.704705,-570.65987)" /><g
     id="g4409"
     transform="translate(4.704705,-570.65987)" /><g
     id="g4411"
     transform="translate(4.704705,-570.65987)" /><g
     id="g4413"
     transform="translate(4.704705,-570.65987)" /><g
     id="g4415"
     transform="translate(4.704705,-570.65987)" /><g
     id="g4417"
     transform="translate(4.704705,-570.65987)" /><g
     id="g4419"
     transform="translate(4.704705,-570.65987)" /><g
     id="g4421"
     transform="translate(4.704705,-570.65987)" /><g
     id="g4423"
     transform="translate(4.704705,-570.65987)" /><g
     id="g4425"
     transform="translate(4.704705,-570.65987)" /></svg>