<?xml version="1.0" encoding="UTF-8" standalone="no"?>
<!-- Created with Inkscape (http://www.inkscape.org/) -->

<svg
   xmlns:dc="http://purl.org/dc/elements/1.1/"
   xmlns:cc="http://creativecommons.org/ns#"
   xmlns:rdf="http://www.w3.org/1999/02/22-rdf-syntax-ns#"
   xmlns:svg="http://www.w3.org/2000/svg"
   xmlns="http://www.w3.org/2000/svg"
   xmlns:sodipodi="http://sodipodi.sourceforge.net/DTD/sodipodi-0.dtd"
   xmlns:inkscape="http://www.inkscape.org/namespaces/inkscape"
   width="32"
   height="32"
   viewBox="0 0 32 32.000001"
   id="svg2"
   version="1.1"
   inkscape:version="0.91 r13725"
   sodipodi:docname="arrowcoin2.svg">
  <defs
     id="defs4" />
  <sodipodi:namedview
     id="base"
     pagecolor="#ffffff"
     bordercolor="#666666"
     borderopacity="1.0"
     inkscape:pageopacity="0.0"
     inkscape:pageshadow="2"
     inkscape:zoom="11.2"
     inkscape:cx="16.47512"
     inkscape:cy="15.524563"
     inkscape:document-units="px"
     inkscape:current-layer="g4655"
     showgrid="false"
     units="px"
     fit-margin-top="0"
     fit-margin-left="0"
     fit-margin-right="0"
     fit-margin-bottom="0"
     inkscape:window-width="1920"
     inkscape:window-height="1058"
     inkscape:window-x="1366"
     inkscape:window-y="0"
     inkscape:window-maximized="0" />
  <metadata
     id="metadata7">
    <rdf:RDF>
      <cc:Work
         rdf:about="">
        <dc:format>image/svg+xml</dc:format>
        <dc:type
           rdf:resource="http://purl.org/dc/dcmitype/StillImage" />
        <dc:title></dc:title>
      </cc:Work>
    </rdf:RDF>
  </metadata>
  <g
     inkscape:label="Layer 1"
     inkscape:groupmode="layer"
     id="layer1"
     transform="translate(-329.39099,-584.72727)">
    <g
       id="g4539"
       transform="matrix(0.60557518,0,0,0.60557518,129.91998,243.25254)">
      <g
         id="g4655"
         transform="matrix(0.8,0,0,0.8,65.878199,123.34546)">
        <circle
           r="31.624605"
           cy="585.10266"
           cx="361.01559"
           id="circle4537"
           style="color:#000000;clip-rule:nonzero;display:inline;overflow:visible;visibility:visible;opacity:1;isolation:auto;mix-blend-mode:normal;color-interpolation:sRGB;color-interpolation-filters:linearRGB;solid-color:#000000;solid-opacity:1;fill:#434266;fill-opacity:1;fill-rule:nonzero;stroke:none;stroke-width:1;stroke-linecap:butt;stroke-linejoin:miter;stroke-miterlimit:4;stroke-dasharray:none;stroke-dashoffset:0;stroke-opacity:1;color-rendering:auto;image-rendering:auto;shape-rendering:auto;text-rendering:auto;enable-background:accumulate" />
        <circle
           style="color:#000000;clip-rule:nonzero;display:inline;overflow:visible;visibility:visible;opacity:1;isolation:auto;mix-blend-mode:normal;color-interpolation:sRGB;color-interpolation-filters:linearRGB;solid-color:#000000;solid-opacity:1;fill:#ffe09a;fill-opacity:1;fill-rule:nonzero;stroke:#906118;stroke-width:1.6073904;stroke-linecap:butt;stroke-linejoin:miter;stroke-miterlimit:4;stroke-dasharray:none;stroke-dashoffset:0;stroke-opacity:1;color-rendering:auto;image-rendering:auto;shape-rendering:auto;text-rendering:auto;enable-background:accumulate"
           id="path4136"
           cx="363.01559"
           cy="583.10266"
           r="31.624605" />
        <path
           inkscape:connector-curvature="0"
           style="color:#000000;clip-rule:nonzero;display:inline;overflow:visible;visibility:visible;opacity:1;isolation:auto;mix-blend-mode:normal;color-interpolation:sRGB;color-interpolation-filters:linearRGB;solid-color:#000000;solid-opacity:1;fill:#9c9cff;fill-opacity:0.53074431;fill-rule:nonzero;stroke:none;stroke-width:0.15971619;stroke-linecap:butt;stroke-linejoin:miter;stroke-miterlimit:4;stroke-dasharray:none;stroke-dashoffset:0;stroke-opacity:1;color-rendering:auto;image-rendering:auto;shape-rendering:auto;text-rendering:auto;enable-background:accumulate"
           d="m 362.25781,561.04297 a 22.816599,22.816599 0 0 0 -9.40625,2.06055 29.108032,29.108032 0 0 1 1.61914,-0.0586 29.108032,29.108032 0 0 1 29.09961,28.88672 22.816599,22.816599 0 0 0 1.50391,-8.07226 22.816599,22.816599 0 0 0 -22.81641,-22.81641 z"
           id="circle4532" />
        <g
           id="g4409"
           transform="matrix(2.5575007,-0.12239737,-1.0868407,2.3183115,348.29354,557.50532)"
           style="stroke:#a05a2c;stroke-width:1.6073904;stroke-opacity:1">
          <g
             transform="translate(4.704705,-570.65987)"
             style="fill:#aa4400;stroke:#a05a2c;stroke-width:1.6073904;stroke-opacity:1"
             id="g4389">
            <g
               style="fill:#aa4400;stroke:#a05a2c;stroke-width:1.6073904;stroke-opacity:1"
               id="g4391">
              <g
                 id="g4437"
                 style="stroke:#a05a2c;stroke-width:1.6073904;stroke-opacity:1">
                <g
                   transform="matrix(0.03096095,0.00815294,0.00815294,0.03096095,-8.1378866,567.43385)"
                   id="g4453"
                   style="stroke:#a05a2c;stroke-width:1.6073904;stroke-opacity:1">
                  <path
                     inkscape:connector-curvature="0"
                     style="fill:#aa4400;stroke:#a05a2c;stroke-width:16.07390404;stroke-miterlimit:4;stroke-dasharray:none;stroke-opacity:1"
                     id="path4393"
                     d="m 576.627,126.403 -111.895,0 c -5.071,0 -9.162,-4.109 -9.141,-9.18 l 0.492,-112.47 c 0.021,-5.07 -2.867,-6.273 -6.45,-2.689 l -36.436,36.441 c -3.586,3.586 -6.49,10.6 -6.49,15.67 l 0,111.895 c 0,5.07 4.109,9.18 9.181,9.18 l 111.895,0 c 5.07,0 12.087,-2.907 15.67,-6.49 l 35.863,-35.863 c 3.587,-3.587 2.381,-6.494 -2.689,-6.494 z" />
                  <path
                     inkscape:connector-curvature="0"
                     style="fill:#aa4400;stroke:#a05a2c;stroke-width:16.07390404;stroke-miterlimit:4;stroke-dasharray:none;stroke-opacity:1"
                     id="path4395"
                     d="m 8.171,581.575 209.772,-29.967 c 5.019,-0.716 5.465,-3.241 0.998,-5.637 l -99.915,-36.956 261.877,-261.877 81.775,-6.08 c 5.055,-0.376 12.06,-3.586 15.646,-7.173 l 35.863,-35.863 c 3.587,-3.586 2.381,-6.49 -2.689,-6.49 l -111.895,0 c -5.07,0 -9.161,-4.109 -9.14,-9.18 l 0.492,-112.47 c 0.021,-5.071 -2.867,-6.273 -6.45,-2.69 l -36.436,36.436 c -3.586,3.586 -6.796,10.59 -7.173,15.646 l -6.08,81.779 L 72.939,462.93 35.983,363.015 c -2.396,-4.468 -4.921,-4.021 -5.637,0.997 L 0.38,573.784 c -0.715,5.019 2.773,8.507 7.791,7.791 z" />
                  <path
                     sodipodi:nodetypes="cccccccc"
                     inkscape:connector-curvature="0"
                     d="m 8.171,581.575 209.772,-29.967 c 5.019,-0.716 5.465,-3.241 0.998,-5.637 L 86.705378,495.9241 35.983,363.015 c -2.396,-4.468 -4.921,-4.021 -5.637,0.997 L 0.38,573.784 c -0.715,5.019 2.773,8.507 7.791,7.791 z"
                     id="path4433"
                     style="fill:#b3b3b3;stroke:#a05a2c;stroke-width:16.14482689;stroke-miterlimit:4;stroke-dasharray:none;stroke-opacity:1" />
                  <path
                     style="fill:#cccccc;stroke:#a05a2c;stroke-width:1.6073904;stroke-opacity:1"
                     id="path4435"
                     d="m 15.547497,575.10144 181.378493,-27.9109 c 3.66973,-0.52352 3.99583,-2.36972 0.7297,-4.12159 l -96.6864,-36.59268 -91.11832,62.92864 c -0.522785,3.66973 2.027528,6.22004 5.696527,5.69653 z"
                     inkscape:connector-curvature="0"
                     sodipodi:nodetypes="cccccc" />
                </g>
              </g>
            </g>
          </g>
          <g
             transform="translate(4.704705,-570.65987)"
             id="g4397"
             style="stroke:#a05a2c;stroke-width:1.6073904;stroke-opacity:1" />
          <g
             transform="translate(4.704705,-570.65987)"
             id="g4399"
             style="stroke:#a05a2c;stroke-width:1.6073904;stroke-opacity:1" />
          <g
             transform="translate(4.704705,-570.65987)"
             id="g4401"
             style="stroke:#a05a2c;stroke-width:1.6073904;stroke-opacity:1" />
          <g
             transform="translate(4.704705,-570.65987)"
             id="g4403"
             style="stroke:#a05a2c;stroke-width:1.6073904;stroke-opacity:1" />
          <g
             transform="translate(4.704705,-570.65987)"
             id="g4405"
             style="stroke:#a05a2c;stroke-width:1.6073904;stroke-opacity:1" />
          <g
             transform="translate(4.704705,-570.65987)"
             id="g4407"
             style="stroke:#a05a2c;stroke-width:1.6073904;stroke-opacity:1" />
          <g
             transform="translate(4.704705,-570.65987)"
             id="g4425"
             style="stroke:#a05a2c;stroke-width:1.6073904;stroke-opacity:1" />
          <g
             transform="translate(4.704705,-570.65987)"
             id="g4411"
             style="stroke:#a05a2c;stroke-width:1.6073904;stroke-opacity:1" />
          <g
             transform="translate(4.704705,-570.65987)"
             id="g4413"
             style="stroke:#a05a2c;stroke-width:1.6073904;stroke-opacity:1" />
          <g
             transform="translate(4.704705,-570.65987)"
             id="g4415"
             style="stroke:#a05a2c;stroke-width:1.6073904;stroke-opacity:1" />
          <g
             transform="translate(4.704705,-570.65987)"
             id="g4417"
             style="stroke:#a05a2c;stroke-width:1.6073904;stroke-opacity:1" />
          <g
             transform="translate(4.704705,-570.65987)"
             id="g4419"
             style="stroke:#a05a2c;stroke-width:1.6073904;stroke-opacity:1" />
          <g
             transform="translate(4.704705,-570.65987)"
             id="g4421"
             style="stroke:#a05a2c;stroke-width:1.6073904;stroke-opacity:1" />
          <g
             transform="translate(4.704705,-570.65987)"
             id="g4423"
             style="stroke:#a05a2c;stroke-width:1.6073904;stroke-opacity:1" />
          <g
             transform="translate(4.704705,-570.65987)"
             id="g4434"
             style="stroke:#a05a2c;stroke-width:1.6073904;stroke-opacity:1" />
        </g>
        <g
           transform="matrix(2.4851406,-0.61633357,-0.61633357,2.4851406,351.04611,566.08393)"
           id="g4436"
           style="stroke:#a05a2c;stroke-width:1.6073904;stroke-opacity:1">
          <g
             id="g4438"
             style="fill:#aa4400;stroke:#a05a2c;stroke-width:1.6073904;stroke-opacity:1"
             transform="translate(4.704705,-570.65987)">
            <g
               id="g4440"
               style="fill:#aa4400;stroke:#a05a2c;stroke-width:1.6073904;stroke-opacity:1">
              <g
                 id="g4442"
                 style="stroke:#a05a2c;stroke-width:1.6073904;stroke-opacity:1">
                <g
                   id="g4444"
                   transform="matrix(0.03096095,0.00815294,0.00815294,0.03096095,-8.1378866,567.43385)"
                   style="stroke:#a05a2c;stroke-width:1.6073904;stroke-opacity:1">
                  <path
                     d="m 576.627,126.403 -111.895,0 c -5.071,0 -9.162,-4.109 -9.141,-9.18 l 0.492,-112.47 c 0.021,-5.07 -2.867,-6.273 -6.45,-2.689 l -36.436,36.441 c -3.586,3.586 -6.49,10.6 -6.49,15.67 l 0,111.895 c 0,5.07 4.109,9.18 9.181,9.18 l 111.895,0 c 5.07,0 12.087,-2.907 15.67,-6.49 l 35.863,-35.863 c 3.587,-3.587 2.381,-6.494 -2.689,-6.494 z"
                     id="path4446"
                     style="fill:#aa4400;stroke:#a05a2c;stroke-width:16.07390404;stroke-miterlimit:4;stroke-dasharray:none;stroke-opacity:1"
                     inkscape:connector-curvature="0" />
                  <path
                     d="m 8.171,581.575 209.772,-29.967 c 5.019,-0.716 5.465,-3.241 0.998,-5.637 l -99.915,-36.956 261.877,-261.877 81.775,-6.08 c 5.055,-0.376 12.06,-3.586 15.646,-7.173 l 35.863,-35.863 c 3.587,-3.586 2.381,-6.49 -2.689,-6.49 l -111.895,0 c -5.07,0 -9.161,-4.109 -9.14,-9.18 l 0.492,-112.47 c 0.021,-5.071 -2.867,-6.273 -6.45,-2.69 l -36.436,36.436 c -3.586,3.586 -6.796,10.59 -7.173,15.646 l -6.08,81.779 L 72.939,462.93 35.983,363.015 c -2.396,-4.468 -4.921,-4.021 -5.637,0.997 L 0.38,573.784 c -0.715,5.019 2.773,8.507 7.791,7.791 z"
                     id="path4448"
                     style="fill:#aa4400;stroke:#a05a2c;stroke-width:16.07390404;stroke-miterlimit:4;stroke-dasharray:none;stroke-opacity:1"
                     inkscape:connector-curvature="0" />
                  <path
                     style="fill:#b3b3b3;stroke:#a05a2c;stroke-width:16.14482689;stroke-miterlimit:4;stroke-dasharray:none;stroke-opacity:1"
                     id="path4450"
                     d="m 8.171,581.575 209.772,-29.967 c 5.019,-0.716 5.465,-3.241 0.998,-5.637 L 86.705378,495.9241 35.983,363.015 c -2.396,-4.468 -4.921,-4.021 -5.637,0.997 L 0.38,573.784 c -0.715,5.019 2.773,8.507 7.791,7.791 z"
                     inkscape:connector-curvature="0"
                     sodipodi:nodetypes="cccccccc" />
                  <path
                     sodipodi:nodetypes="cccccc"
                     inkscape:connector-curvature="0"
                     d="m 15.547497,575.10144 181.378493,-27.9109 c 3.66973,-0.52352 3.99583,-2.36972 0.7297,-4.12159 l -96.6864,-36.59268 -91.11832,62.92864 c -0.522785,3.66973 2.027528,6.22004 5.696527,5.69653 z"
                     id="path4452"
                     style="fill:#cccccc;stroke:#a05a2c;stroke-width:1.6073904;stroke-opacity:1" />
                </g>
              </g>
            </g>
          </g>
          <g
             id="g4454"
             transform="translate(4.704705,-570.65987)"
             style="stroke:#a05a2c;stroke-width:1.6073904;stroke-opacity:1" />
          <g
             id="g4456"
             transform="translate(4.704705,-570.65987)"
             style="stroke:#a05a2c;stroke-width:1.6073904;stroke-opacity:1" />
          <g
             id="g4458"
             transform="translate(4.704705,-570.65987)"
             style="stroke:#a05a2c;stroke-width:1.6073904;stroke-opacity:1" />
          <g
             id="g4460"
             transform="translate(4.704705,-570.65987)"
             style="stroke:#a05a2c;stroke-width:1.6073904;stroke-opacity:1" />
          <g
             id="g4462"
             transform="translate(4.704705,-570.65987)"
             style="stroke:#a05a2c;stroke-width:1.6073904;stroke-opacity:1" />
          <g
             id="g4464"
             transform="translate(4.704705,-570.65987)"
             style="stroke:#a05a2c;stroke-width:1.6073904;stroke-opacity:1" />
          <g
             id="g4466"
             transform="translate(4.704705,-570.65987)"
             style="stroke:#a05a2c;stroke-width:1.6073904;stroke-opacity:1" />
          <g
             id="g4468"
             transform="translate(4.704705,-570.65987)"
             style="stroke:#a05a2c;stroke-width:1.6073904;stroke-opacity:1" />
          <g
             id="g4470"
             transform="translate(4.704705,-570.65987)"
             style="stroke:#a05a2c;stroke-width:1.6073904;stroke-opacity:1" />
          <g
             id="g4472"
             transform="translate(4.704705,-570.65987)"
             style="stroke:#a05a2c;stroke-width:1.6073904;stroke-opacity:1" />
          <g
             id="g4474"
             transform="translate(4.704705,-570.65987)"
             style="stroke:#a05a2c;stroke-width:1.6073904;stroke-opacity:1" />
          <g
             id="g4476"
             transform="translate(4.704705,-570.65987)"
             style="stroke:#a05a2c;stroke-width:1.6073904;stroke-opacity:1" />
          <g
             id="g4478"
             transform="translate(4.704705,-570.65987)"
             style="stroke:#a05a2c;stroke-width:1.6073904;stroke-opacity:1" />
          <g
             id="g4480"
             transform="translate(4.704705,-570.65987)"
             style="stroke:#a05a2c;stroke-width:1.6073904;stroke-opacity:1" />
          <g
             id="g4482"
             transform="translate(4.704705,-570.65987)"
             style="stroke:#a05a2c;stroke-width:1.6073904;stroke-opacity:1" />
        </g>
        <g
           style="stroke:#a05a2c;stroke-width:1.6073904;stroke-opacity:1"
           id="g4484"
           transform="matrix(2.3835002,-0.93526353,-0.28686966,2.5443067,355.17817,574.14351)">
          <g
             transform="translate(4.704705,-570.65987)"
             style="fill:#aa4400;stroke:#a05a2c;stroke-width:1.6073904;stroke-opacity:1"
             id="g4486">
            <g
               style="fill:#aa4400;stroke:#a05a2c;stroke-width:1.6073904;stroke-opacity:1"
               id="g4488">
              <g
                 style="stroke:#a05a2c;stroke-width:1.6073904;stroke-opacity:1"
                 id="g4490">
                <g
                   style="stroke:#a05a2c;stroke-width:1.6073904;stroke-opacity:1"
                   transform="matrix(0.03096095,0.00815294,0.00815294,0.03096095,-8.1378866,567.43385)"
                   id="g4492">
                  <path
                     inkscape:connector-curvature="0"
                     style="fill:#aa4400;stroke:#a05a2c;stroke-width:16.07390404;stroke-miterlimit:4;stroke-dasharray:none;stroke-opacity:1"
                     id="path4494"
                     d="m 576.627,126.403 -111.895,0 c -5.071,0 -9.162,-4.109 -9.141,-9.18 l 0.492,-112.47 c 0.021,-5.07 -2.867,-6.273 -6.45,-2.689 l -36.436,36.441 c -3.586,3.586 -6.49,10.6 -6.49,15.67 l 0,111.895 c 0,5.07 4.109,9.18 9.181,9.18 l 111.895,0 c 5.07,0 12.087,-2.907 15.67,-6.49 l 35.863,-35.863 c 3.587,-3.587 2.381,-6.494 -2.689,-6.494 z" />
                  <path
                     inkscape:connector-curvature="0"
                     style="fill:#aa4400;stroke:#a05a2c;stroke-width:16.07390404;stroke-miterlimit:4;stroke-dasharray:none;stroke-opacity:1"
                     id="path4496"
                     d="m 8.171,581.575 209.772,-29.967 c 5.019,-0.716 5.465,-3.241 0.998,-5.637 l -99.915,-36.956 261.877,-261.877 81.775,-6.08 c 5.055,-0.376 12.06,-3.586 15.646,-7.173 l 35.863,-35.863 c 3.587,-3.586 2.381,-6.49 -2.689,-6.49 l -111.895,0 c -5.07,0 -9.161,-4.109 -9.14,-9.18 l 0.492,-112.47 c 0.021,-5.071 -2.867,-6.273 -6.45,-2.69 l -36.436,36.436 c -3.586,3.586 -6.796,10.59 -7.173,15.646 l -6.08,81.779 L 72.939,462.93 35.983,363.015 c -2.396,-4.468 -4.921,-4.021 -5.637,0.997 L 0.38,573.784 c -0.715,5.019 2.773,8.507 7.791,7.791 z" />
                  <path
                     sodipodi:nodetypes="cccccccc"
                     inkscape:connector-curvature="0"
                     d="m 8.171,581.575 209.772,-29.967 c 5.019,-0.716 5.465,-3.241 0.998,-5.637 L 86.705378,495.9241 35.983,363.015 c -2.396,-4.468 -4.921,-4.021 -5.637,0.997 L 0.38,573.784 c -0.715,5.019 2.773,8.507 7.791,7.791 z"
                     id="path4498"
                     style="fill:#b3b3b3;stroke:#a05a2c;stroke-width:16.14482689;stroke-miterlimit:4;stroke-dasharray:none;stroke-opacity:1" />
                  <path
                     style="fill:#cccccc;stroke:#a05a2c;stroke-width:1.6073904;stroke-opacity:1"
                     id="path4500"
                     d="m 15.547497,575.10144 181.378493,-27.9109 c 3.66973,-0.52352 3.99583,-2.36972 0.7297,-4.12159 l -96.6864,-36.59268 -91.11832,62.92864 c -0.522785,3.66973 2.027528,6.22004 5.696527,5.69653 z"
                     inkscape:connector-curvature="0"
                     sodipodi:nodetypes="cccccc" />
                </g>
              </g>
            </g>
          </g>
          <g
             style="stroke:#a05a2c;stroke-width:1.6073904;stroke-opacity:1"
             transform="translate(4.704705,-570.65987)"
             id="g4502" />
          <g
             style="stroke:#a05a2c;stroke-width:1.6073904;stroke-opacity:1"
             transform="translate(4.704705,-570.65987)"
             id="g4504" />
          <g
             style="stroke:#a05a2c;stroke-width:1.6073904;stroke-opacity:1"
             transform="translate(4.704705,-570.65987)"
             id="g4506" />
          <g
             style="stroke:#a05a2c;stroke-width:1.6073904;stroke-opacity:1"
             transform="translate(4.704705,-570.65987)"
             id="g4508" />
          <g
             style="stroke:#a05a2c;stroke-width:1.6073904;stroke-opacity:1"
             transform="translate(4.704705,-570.65987)"
             id="g4510" />
          <g
             style="stroke:#a05a2c;stroke-width:1.6073904;stroke-opacity:1"
             transform="translate(4.704705,-570.65987)"
             id="g4512" />
          <g
             style="stroke:#a05a2c;stroke-width:1.6073904;stroke-opacity:1"
             transform="translate(4.704705,-570.65987)"
             id="g4514" />
          <g
             style="stroke:#a05a2c;stroke-width:1.6073904;stroke-opacity:1"
             transform="translate(4.704705,-570.65987)"
             id="g4516" />
          <g
             style="stroke:#a05a2c;stroke-width:1.6073904;stroke-opacity:1"
             transform="translate(4.704705,-570.65987)"
             id="g4518" />
          <g
             style="stroke:#a05a2c;stroke-width:1.6073904;stroke-opacity:1"
             transform="translate(4.704705,-570.65987)"
             id="g4520" />
          <g
             style="stroke:#a05a2c;stroke-width:1.6073904;stroke-opacity:1"
             transform="translate(4.704705,-570.65987)"
             id="g4522" />
          <g
             style="stroke:#a05a2c;stroke-width:1.6073904;stroke-opacity:1"
             transform="translate(4.704705,-570.65987)"
             id="g4524" />
          <g
             style="stroke:#a05a2c;stroke-width:1.6073904;stroke-opacity:1"
             transform="translate(4.704705,-570.65987)"
             id="g4526" />
          <g
             style="stroke:#a05a2c;stroke-width:1.6073904;stroke-opacity:1"
             transform="translate(4.704705,-570.65987)"
             id="g4528" />
          <g
             style="stroke:#a05a2c;stroke-width:1.6073904;stroke-opacity:1"
             transform="translate(4.704705,-570.65987)"
             id="g4530" />
        </g>
      </g>
    </g>
  </g>
</svg>
