<?xml version="1.0" encoding="UTF-8" standalone="no"?>
<!-- Generator: Adobe Illustrator 17.0.0, SVG Export Plug-In . SVG Version: 6.00 Build 0)  -->

<svg
   xmlns:dc="http://purl.org/dc/elements/1.1/"
   xmlns:cc="http://creativecommons.org/ns#"
   xmlns:rdf="http://www.w3.org/1999/02/22-rdf-syntax-ns#"
   xmlns:svg="http://www.w3.org/2000/svg"
   xmlns="http://www.w3.org/2000/svg"
   xmlns:sodipodi="http://sodipodi.sourceforge.net/DTD/sodipodi-0.dtd"
   xmlns:inkscape="http://www.inkscape.org/namespaces/inkscape"
   version="1.1"
   id="Layer_1"
   x="0px"
   y="0px"
   width="19.999969"
   height="20.000015"
   viewBox="0 0 19.99997 20.000016"
   enable-background="new 0 0 300 300"
   xml:space="preserve"
   inkscape:version="0.91 r13725"
   sodipodi:docname="feather.svg"><metadata
     id="metadata4811"><rdf:RDF><cc:Work
         rdf:about=""><dc:format>image/svg+xml</dc:format><dc:type
           rdf:resource="http://purl.org/dc/dcmitype/StillImage" /><dc:title></dc:title></cc:Work></rdf:RDF></metadata><defs
     id="defs4809" /><sodipodi:namedview
     pagecolor="#ffffff"
     bordercolor="#666666"
     borderopacity="1"
     objecttolerance="10"
     gridtolerance="10"
     guidetolerance="10"
     inkscape:pageopacity="0"
     inkscape:pageshadow="2"
     inkscape:window-width="1366"
     inkscape:window-height="768"
     id="namedview4807"
     showgrid="false"
     fit-margin-top="0"
     fit-margin-left="0"
     fit-margin-right="0"
     fit-margin-bottom="0"
     inkscape:zoom="17.800235"
     inkscape:cx="9.761199"
     inkscape:cy="9.6600198"
     inkscape:window-x="0"
     inkscape:window-y="0"
     inkscape:window-maximized="0"
     inkscape:current-layer="g5648" /><g
     id="g5648"
     transform="matrix(0.62499906,0,0,0.62500047,-2.9954675e-6,1.3097662e-6)"><g
       id="g5760"
       transform="matrix(0.19308571,0,0,0.19308528,0.44702387,1.1065504)"
       style="fill:#ffffff;stroke:#000000;stroke-opacity:1;stroke-width:2.48594634;stroke-miterlimit:4;stroke-dasharray:none"><g
         style="fill:#ffffff;stroke:#000000;stroke-opacity:1;stroke-width:2.48594634;stroke-miterlimit:4;stroke-dasharray:none"
         id="g3360"><path
           inkscape:connector-curvature="0"
           id="path7"
           d="M 76.148473,59.311556 C 57.65525,74.479001 33.444742,105.72183 12.912341,142.21797 l -0.01159,-0.0142 -3.5891015,6.33346 3.8271465,1.47251 2.022326,-5.3281 C 26.114864,124.93709 55.830943,73.373568 110.16673,39.114628 c 0,0 20.22906,-12.048112 40.16003,-28.710709 -4.85253,4.056238 -14.4254,9.140492 -19.61604,12.420452 -13.62331,8.607525 -30.43495,16.696829 -54.562247,36.487185 z"
           style="fill:#ffffff;stroke:#000000;stroke-opacity:1;stroke-width:2.48594634;stroke-miterlimit:4;stroke-dasharray:none" /><path
           inkscape:connector-curvature="0"
           id="path9"
           d="m 10.236972,113.42142 c -4.2052795,14.86356 -3.9646016,26.18385 -2.3372612,29.29476 l 2.5437072,0 C 17.467314,128.16754 51.296509,75.466991 72.352925,58.970815 94.168766,41.878474 110.99726,31.933264 125.15091,24.680277 c 4.96997,-2.54634 10.06844,-5.995354 14.66607,-9.452794 5.58299,-4.402773 11.24287,-9.1120535 16.19862,-13.7207448 L 141.65024,10.927933 148.05533,1.1312386 135.82658,13.56591 143.78422,0 c -18.82554,1.6984378 -36.29549,11.117 -36.29549,11.117 -6.98914,8.289956 -12.617943,21.477734 -12.617943,21.477734 -0.194859,-6.594152 4.271111,-16.579387 4.271111,-16.579387 -3.299973,1.506738 -15.837867,8.66809 -15.837867,8.66809 -6.132809,5.087413 -8.037693,18.464257 -8.037693,18.464257 -1.165997,-5.27648 2.910254,-15.448148 2.910254,-15.448148 C 60.511258,37.874374 47.893314,55.206866 47.893314,55.206866 39.159393,72.350818 46.340757,85.727662 43.622203,82.525119 40.903649,79.322577 41.488228,67.641537 41.488228,67.641537 23.046616,85.352689 21.107501,93.828552 21.107501,93.828552 c -3.105113,7.536328 -5.823667,27.696388 -5.823667,27.696388 -1.747416,-1.88487 0,-12.43467 0,-12.43467 -4.465443,9.42119 -2.328835,18.27519 -2.328835,18.27519 -2.133975,-0.75574 -2.718027,-13.94404 -2.718027,-13.94404 z"
           style="fill:#ffffff;stroke:#000000;stroke-opacity:1;stroke-width:2.48594634;stroke-miterlimit:4;stroke-dasharray:none" /><path
           inkscape:connector-curvature="0"
           id="path11"
           d="m 156.01824,7.4736531 c 0,0 -7.10079,6.8806479 -16.19862,13.7207449 C 125.55748,32.443059 111.82515,41.638323 111.82515,41.638323 58.027589,73.427812 28.05082,125.30627 18.143003,143.09431 l 5.267527,0 c 1.861698,-1.49252 4.657669,-2.61797 16.333442,-5.99799 14.75192,-4.27111 23.551671,-13.18778 23.551671,-13.18778 0,0 -13.457421,7.53633 -19.799308,6.78322 -6.341888,-0.7531 -14.86357,1.63261 -14.86357,1.63261 0,0 -3.254154,-1.50674 12.792792,-3.89298 16.046946,-2.38624 42.445673,-20.34649 42.445673,-20.34649 0,0 -10.09425,4.14471 -14.75192,3.76658 -4.657669,-0.37813 -16.175448,0 -16.175448,0 7.633754,-1.759 14.75192,-0.75311 26.398727,-5.15009 11.646807,-4.39697 10.999558,-4.01884 10.999558,-4.01884 13.199363,-4.396981 18.682293,-18.086126 18.682293,-18.086126 -2.28302,0.879501 -19.719262,3.013476 -26.951711,0.879501 -7.232975,-2.133976 -19.555471,0 -19.555471,0 11.646807,-3.892978 14.236333,-2.133976 17.080755,-2.259844 2.847056,-0.125869 12.036526,0.627237 30.283277,-5.651453 18.24675,-6.278691 23.42264,-14.067279 23.42264,-14.067279 l -12.30564,1.644193 c 8.03506,-1.351904 17.09234,-6.668409 17.09234,-6.668409 -5.56561,1.506738 -14.23633,2.259844 -14.23633,2.259844 10.22328,-2.259844 15.91792,-5.399716 15.91792,-5.399716 9.57603,-7.284586 11.77583,-18.086124 11.77583,-18.086124 -13.58908,4.646083 -24.32795,2.512108 -24.32795,2.512108 18.63647,-1.254474 23.81237,-6.029586 26.39873,-7.158192 2.58953,-1.131238 3.65493,-5.80892 3.65493,-5.80892 -9.4154,3.391609 -20.09159,3.955648 -20.09159,3.955648 11.54937,-1.790074 21.44613,-7.63112 21.44613,-7.63112 l 0,-5.84684 c -4.46544,2.543707 -12.32302,4.522848 -12.32302,4.522848 l 12.22822,-7.911824 c 0.68728,-3.9582815 -2.51526,-6.4071919 -2.51526,-6.4071919 z"
           style="fill:#ffffff;stroke:#000000;stroke-opacity:1;stroke-width:2.48594634;stroke-miterlimit:4;stroke-dasharray:none" /></g><g
         transform="translate(-13.762,-156.83592)"
         id="g17"
         style="fill:#ffffff;stroke:#000000;stroke-opacity:1;stroke-width:2.48594634;stroke-miterlimit:4;stroke-dasharray:none" /><g
         transform="translate(-13.762,-156.83592)"
         id="g19"
         style="fill:#ffffff;stroke:#000000;stroke-opacity:1;stroke-width:2.48594634;stroke-miterlimit:4;stroke-dasharray:none" /><g
         transform="translate(-13.762,-156.83592)"
         id="g21"
         style="fill:#ffffff;stroke:#000000;stroke-opacity:1;stroke-width:2.48594634;stroke-miterlimit:4;stroke-dasharray:none" /><g
         transform="translate(-13.762,-156.83592)"
         id="g23"
         style="fill:#ffffff;stroke:#000000;stroke-opacity:1;stroke-width:2.48594634;stroke-miterlimit:4;stroke-dasharray:none" /><g
         transform="translate(-13.762,-156.83592)"
         id="g25"
         style="fill:#ffffff;stroke:#000000;stroke-opacity:1;stroke-width:2.48594634;stroke-miterlimit:4;stroke-dasharray:none" /><g
         transform="translate(-13.762,-156.83592)"
         id="g27"
         style="fill:#ffffff;stroke:#000000;stroke-opacity:1;stroke-width:2.48594634;stroke-miterlimit:4;stroke-dasharray:none" /><g
         transform="translate(-13.762,-156.83592)"
         id="g29"
         style="fill:#ffffff;stroke:#000000;stroke-opacity:1;stroke-width:2.48594634;stroke-miterlimit:4;stroke-dasharray:none" /><g
         transform="translate(-13.762,-156.83592)"
         id="g31"
         style="fill:#ffffff;stroke:#000000;stroke-opacity:1;stroke-width:2.48594634;stroke-miterlimit:4;stroke-dasharray:none" /><g
         transform="translate(-13.762,-156.83592)"
         id="g33"
         style="fill:#ffffff;stroke:#000000;stroke-opacity:1;stroke-width:2.48594634;stroke-miterlimit:4;stroke-dasharray:none" /><g
         transform="translate(-13.762,-156.83592)"
         id="g35"
         style="fill:#ffffff;stroke:#000000;stroke-opacity:1;stroke-width:2.48594634;stroke-miterlimit:4;stroke-dasharray:none" /><g
         transform="translate(-13.762,-156.83592)"
         id="g37"
         style="fill:#ffffff;stroke:#000000;stroke-opacity:1;stroke-width:2.48594634;stroke-miterlimit:4;stroke-dasharray:none" /><g
         transform="translate(-13.762,-156.83592)"
         id="g39"
         style="fill:#ffffff;stroke:#000000;stroke-opacity:1;stroke-width:2.48594634;stroke-miterlimit:4;stroke-dasharray:none" /><g
         transform="translate(-13.762,-156.83592)"
         id="g41"
         style="fill:#ffffff;stroke:#000000;stroke-opacity:1;stroke-width:2.48594634;stroke-miterlimit:4;stroke-dasharray:none" /><g
         transform="translate(-13.762,-156.83592)"
         id="g43"
         style="fill:#ffffff;stroke:#000000;stroke-opacity:1;stroke-width:2.48594634;stroke-miterlimit:4;stroke-dasharray:none" /><g
         transform="translate(-13.762,-156.83592)"
         id="g45"
         style="fill:#ffffff;stroke:#000000;stroke-opacity:1;stroke-width:2.48594634;stroke-miterlimit:4;stroke-dasharray:none" /></g></g></svg>