<?xml version="1.0" encoding="UTF-8" standalone="no"?>
<!-- Created with Inkscape (http://www.inkscape.org/) -->

<svg
   xmlns:dc="http://purl.org/dc/elements/1.1/"
   xmlns:cc="http://creativecommons.org/ns#"
   xmlns:rdf="http://www.w3.org/1999/02/22-rdf-syntax-ns#"
   xmlns:svg="http://www.w3.org/2000/svg"
   xmlns="http://www.w3.org/2000/svg"
   xmlns:sodipodi="http://sodipodi.sourceforge.net/DTD/sodipodi-0.dtd"
   xmlns:inkscape="http://www.inkscape.org/namespaces/inkscape"
   width="20.865822"
   height="19.860323"
   viewBox="0 0 20.865821 19.860323"
   id="svg2"
   version="1.1"
   inkscape:version="0.91 r13725"
   sodipodi:docname="feather2.svg">
  <defs
     id="defs4" />
  <sodipodi:namedview
     id="base"
     pagecolor="#ffffff"
     bordercolor="#666666"
     borderopacity="1.0"
     inkscape:pageopacity="0.0"
     inkscape:pageshadow="2"
     inkscape:zoom="11.2"
     inkscape:cx="22.153933"
     inkscape:cy="9.6792244"
     inkscape:document-units="px"
     inkscape:current-layer="g5256"
     showgrid="false"
     inkscape:window-width="1366"
     inkscape:window-height="768"
     inkscape:window-x="0"
     inkscape:window-y="0"
     inkscape:window-maximized="0"
     fit-margin-top="0"
     fit-margin-left="0"
     fit-margin-right="0"
     fit-margin-bottom="0"
     units="px"
     inkscape:object-paths="true"
     inkscape:snap-intersection-paths="true"
     inkscape:object-nodes="true"
     inkscape:snap-smooth-nodes="true"
     inkscape:snap-midpoints="true"
     inkscape:snap-global="false"
     inkscape:snap-bbox="true"
     inkscape:snap-bbox-midpoints="true"
     inkscape:snap-object-midpoints="true" />
  <metadata
     id="metadata7">
    <rdf:RDF>
      <cc:Work
         rdf:about="">
        <dc:format>image/svg+xml</dc:format>
        <dc:type
           rdf:resource="http://purl.org/dc/dcmitype/StillImage" />
        <dc:title></dc:title>
      </cc:Work>
    </rdf:RDF>
  </metadata>
  <g
     inkscape:label="Camada 1"
     inkscape:groupmode="layer"
     id="layer1"
     transform="translate(-291.93475,-368.01101)">
    <g
       id="g5256"
       transform="matrix(0.12319359,0,0,0.12319359,255.90483,340.14784)">
      <path
         sodipodi:type="star"
         style="fill:#281d01;fill-opacity:1;stroke:#000000;stroke-width:0.31025559;stroke-miterlimit:4;stroke-dasharray:none;stroke-dashoffset:0;stroke-opacity:1"
         id="path4150"
         sodipodi:sides="5"
         sodipodi:cx="-377.15295"
         sodipodi:cy="-315.17023"
         sodipodi:r1="88.841217"
         sodipodi:r2="46.197433"
         sodipodi:arg1="1.5707963"
         sodipodi:arg2="2.1991149"
         inkscape:flatsided="false"
         inkscape:rounded="0.08"
         inkscape:randomized="0"
         d="m -377.15295,-226.32901 c -4.65527,0 -23.38799,-48.73041 -27.15418,-51.46671 -3.76618,-2.7363 -55.90029,-5.49364 -57.33884,-9.92106 -1.43856,-4.42742 39.11809,-37.30182 40.55665,-41.72924 1.43855,-4.42742 -12.04938,-54.86196 -8.28319,-57.59826 3.76619,-2.7363 47.56429,25.67662 52.21956,25.67662 4.65526,0 48.45336,-28.41292 52.21955,-25.67662 3.76619,2.73629 -9.72174,53.17084 -8.28318,57.59826 1.43855,4.42742 41.9952,37.30182 40.55665,41.72924 -1.43856,4.42742 -53.57267,7.18477 -57.33886,9.92106 -3.76618,2.7363 -22.4989,51.46671 -27.15416,51.46671 z"
         inkscape:transform-center-y="-0.23799903"
         transform="scale(-1,-1)"
         inkscape:transform-center-x="0.17732703" />
      <path
         sodipodi:type="star"
         style="fill:#edac09;fill-opacity:1;stroke:#000000;stroke-width:0.27140194;stroke-miterlimit:4;stroke-dasharray:none;stroke-dashoffset:0;stroke-opacity:1"
         id="path4154"
         sodipodi:sides="5"
         sodipodi:cx="-377.28101"
         sodipodi:cy="-314.59897"
         sodipodi:r1="77.715538"
         sodipodi:r2="40.412079"
         sodipodi:arg1="1.5707963"
         sodipodi:arg2="2.1991149"
         inkscape:flatsided="false"
         inkscape:rounded="0.08"
         inkscape:randomized="0"
         d="m -377.281,-236.88343 c -4.07229,0 -20.45909,-42.62785 -23.75363,-45.02148 -3.29455,-2.39363 -48.89984,-4.80566 -50.15824,-8.67863 -1.25841,-3.87297 34.21929,-32.63048 35.47769,-36.50345 1.25841,-3.87297 -10.54042,-47.99154 -7.24587,-50.38517 3.29454,-2.39363 41.60776,22.46111 45.68005,22.46111 4.07228,0 42.38549,-24.85474 45.68004,-22.46111 3.29454,2.39363 -8.50428,46.5122 -7.24587,50.38517 1.2584,3.87297 36.7361,32.63047 35.47769,36.50344 -1.2584,3.87297 -46.8637,6.28501 -50.15824,8.67864 -3.29455,2.39363 -19.68134,45.02148 -23.75362,45.02148 z"
         inkscape:transform-center-y="-7.421173"
         transform="scale(-1,-1)" />
      <path
         id="path4136"
         d="m 377.28078,236.88311 c -4.07228,0 -20.45843,42.62801 -23.75297,45.02163 -3.29455,2.39363 -48.89971,4.80624 -50.15811,8.67921 -0.16737,0.51509 0.32987,1.47986 1.29517,2.75819 5.81498,-3.45444 45.9865,-5.70121 49.05908,-7.93357 3.26723,-2.37377 19.51832,-44.64878 23.55683,-44.64878 4.03852,0 20.28962,42.27501 23.55684,44.64878 3.07259,2.23237 43.24631,4.47908 49.06085,7.93357 0.96519,-1.27822 1.46252,-2.24313 1.29516,-2.75819 -1.2584,-3.87297 -46.86356,-6.28558 -50.15811,-8.67921 -3.29455,-2.39362 -19.68246,-45.02163 -23.75474,-45.02163 z m -38.4486,92.73253 c -1.04843,10.03736 -9.73634,44.0061 -7.42292,47.63669 0.17146,-10.31227 8.84013,-43.70376 7.75687,-47.03769 -0.0506,-0.15564 -0.17661,-0.36559 -0.33395,-0.599 z m 76.89721,0 c -0.15733,0.23341 -0.28161,0.44336 -0.33219,0.599 -1.08319,3.33375 7.58271,36.72164 7.7551,47.03594 2.31061,-3.63717 -6.37461,-37.59874 -7.42291,-47.63494 z"
         style="fill:#f9f9f9;fill-opacity:0.38855423;stroke:none;stroke-width:0.30000001;stroke-miterlimit:4;stroke-dasharray:none;stroke-dashoffset:0;stroke-opacity:1"
         inkscape:connector-curvature="0" />
      <path
         id="path4140"
         d="m 420.84114,290.15104 -76.04377,76.04378 c 10.44019,-4.98596 29.8507,-17.16404 32.48341,-17.16404 3.46842,0 36.10024,21.16933 38.90625,19.13066 2.80601,-2.03869 -7.24372,-39.61501 -6.17192,-42.91367 1.0718,-3.29866 31.29,-27.79242 30.2182,-31.09107 -0.51223,-1.57649 -9.68256,-2.86346 -19.39217,-4.00566 z"
         style="fill:#ffffff;fill-opacity:0.38253012;stroke:none;stroke-width:0.25551403;stroke-miterlimit:4;stroke-dasharray:none;stroke-dashoffset:0;stroke-opacity:1"
         inkscape:connector-curvature="0" />
      <g
         transform="matrix(3.3784407,4.379346e-8,0,3.3784484,320.0756,262.505)"
         id="g4985"
         style="fill:#291e02;fill-opacity:1;stroke:none;stroke-opacity:1">
        <g
           style="fill:#291e02;fill-opacity:1;stroke:none;stroke-width:2.48594642;stroke-miterlimit:4;stroke-dasharray:none;stroke-opacity:1"
           transform="matrix(0.19308571,0,0,0.19308528,0.44702387,1.1065504)"
           id="g4987">
          <g
             id="g4989"
             style="fill:#291e02;fill-opacity:1;stroke:none;stroke-width:2.48594642;stroke-miterlimit:4;stroke-dasharray:none;stroke-opacity:1">
            <path
               style="fill:#291e02;fill-opacity:1;stroke:none;stroke-width:2.48594642;stroke-miterlimit:4;stroke-dasharray:none;stroke-opacity:1"
               d="M 76.148473,59.311556 C 57.65525,74.479001 33.444742,105.72183 12.912341,142.21797 l -0.01159,-0.0142 -3.5891015,6.33346 3.8271465,1.47251 2.022326,-5.3281 C 26.114864,124.93709 55.830943,73.373568 110.16673,39.114628 c 0,0 20.22906,-12.048112 40.16003,-28.710709 -4.85253,4.056238 -14.4254,9.140492 -19.61604,12.420452 -13.62331,8.607525 -30.43495,16.696829 -54.562247,36.487185 z"
               id="path4991"
               inkscape:connector-curvature="0" />
            <path
               style="fill:#291e02;fill-opacity:1;stroke:none;stroke-width:2.48594642;stroke-miterlimit:4;stroke-dasharray:none;stroke-opacity:1"
               d="m 10.236972,113.42142 c -4.2052795,14.86356 -3.9646016,26.18385 -2.3372612,29.29476 l 2.5437072,0 C 17.467314,128.16754 51.296509,75.466991 72.352925,58.970815 94.168766,41.878474 110.99726,31.933264 125.15091,24.680277 c 4.96997,-2.54634 10.06844,-5.995354 14.66607,-9.452794 5.58299,-4.402773 11.24287,-9.1120535 16.19862,-13.7207448 L 141.65024,10.927933 148.05533,1.1312386 135.82658,13.56591 143.78422,0 c -18.82554,1.6984378 -36.29549,11.117 -36.29549,11.117 -6.98914,8.289956 -12.617943,21.477734 -12.617943,21.477734 -0.194859,-6.594152 4.271111,-16.579387 4.271111,-16.579387 -3.299973,1.506738 -15.837867,8.66809 -15.837867,8.66809 -6.132809,5.087413 -8.037693,18.464257 -8.037693,18.464257 -1.165997,-5.27648 2.910254,-15.448148 2.910254,-15.448148 C 60.511258,37.874374 47.893314,55.206866 47.893314,55.206866 39.159393,72.350818 46.340757,85.727662 43.622203,82.525119 40.903649,79.322577 41.488228,67.641537 41.488228,67.641537 23.046616,85.352689 21.107501,93.828552 21.107501,93.828552 c -3.105113,7.536328 -5.823667,27.696388 -5.823667,27.696388 -1.747416,-1.88487 0,-12.43467 0,-12.43467 -4.465443,9.42119 -2.328835,18.27519 -2.328835,18.27519 -2.133975,-0.75574 -2.718027,-13.94404 -2.718027,-13.94404 z"
               id="path4993"
               inkscape:connector-curvature="0" />
            <path
               style="fill:#291e02;fill-opacity:1;stroke:none;stroke-width:2.48594642;stroke-miterlimit:4;stroke-dasharray:none;stroke-opacity:1"
               d="m 156.01824,7.4736531 c 0,0 -7.10079,6.8806479 -16.19862,13.7207449 C 125.55748,32.443059 111.82515,41.638323 111.82515,41.638323 58.027589,73.427812 28.05082,125.30627 18.143003,143.09431 l 5.267527,0 c 1.861698,-1.49252 4.657669,-2.61797 16.333442,-5.99799 14.75192,-4.27111 23.551671,-13.18778 23.551671,-13.18778 0,0 -13.457421,7.53633 -19.799308,6.78322 -6.341888,-0.7531 -14.86357,1.63261 -14.86357,1.63261 0,0 -3.254154,-1.50674 12.792792,-3.89298 16.046946,-2.38624 42.445673,-20.34649 42.445673,-20.34649 0,0 -10.09425,4.14471 -14.75192,3.76658 -4.657669,-0.37813 -16.175448,0 -16.175448,0 7.633754,-1.759 14.75192,-0.75311 26.398727,-5.15009 11.646807,-4.39697 10.999558,-4.01884 10.999558,-4.01884 13.199363,-4.396981 18.682293,-18.086126 18.682293,-18.086126 -2.28302,0.879501 -19.719262,3.013476 -26.951711,0.879501 -7.232975,-2.133976 -19.555471,0 -19.555471,0 11.646807,-3.892978 14.236333,-2.133976 17.080755,-2.259844 2.847056,-0.125869 12.036526,0.627237 30.283277,-5.651453 18.24675,-6.278691 23.42264,-14.067279 23.42264,-14.067279 l -12.30564,1.644193 c 8.03506,-1.351904 17.09234,-6.668409 17.09234,-6.668409 -5.56561,1.506738 -14.23633,2.259844 -14.23633,2.259844 10.22328,-2.259844 15.91792,-5.399716 15.91792,-5.399716 9.57603,-7.284586 11.77583,-18.086124 11.77583,-18.086124 -13.58908,4.646083 -24.32795,2.512108 -24.32795,2.512108 18.63647,-1.254474 23.81237,-6.029586 26.39873,-7.158192 2.58953,-1.131238 3.65493,-5.80892 3.65493,-5.80892 -9.4154,3.391609 -20.09159,3.955648 -20.09159,3.955648 11.54937,-1.790074 21.44613,-7.63112 21.44613,-7.63112 l 0,-5.84684 c -4.46544,2.543707 -12.32302,4.522848 -12.32302,4.522848 l 12.22822,-7.911824 c 0.68728,-3.9582815 -2.51526,-6.4071919 -2.51526,-6.4071919 z"
               id="path4995"
               inkscape:connector-curvature="0" />
          </g>
          <g
             style="fill:#291e02;fill-opacity:1;stroke:none;stroke-width:2.48594642;stroke-miterlimit:4;stroke-dasharray:none;stroke-opacity:1"
             id="g4997"
             transform="translate(-13.762,-156.83592)" />
          <g
             style="fill:#291e02;fill-opacity:1;stroke:none;stroke-width:2.48594642;stroke-miterlimit:4;stroke-dasharray:none;stroke-opacity:1"
             id="g4999"
             transform="translate(-13.762,-156.83592)" />
          <g
             style="fill:#291e02;fill-opacity:1;stroke:none;stroke-width:2.48594642;stroke-miterlimit:4;stroke-dasharray:none;stroke-opacity:1"
             id="g5001"
             transform="translate(-13.762,-156.83592)" />
          <g
             style="fill:#291e02;fill-opacity:1;stroke:none;stroke-width:2.48594642;stroke-miterlimit:4;stroke-dasharray:none;stroke-opacity:1"
             id="g5003"
             transform="translate(-13.762,-156.83592)" />
          <g
             style="fill:#291e02;fill-opacity:1;stroke:none;stroke-width:2.48594642;stroke-miterlimit:4;stroke-dasharray:none;stroke-opacity:1"
             id="g5005"
             transform="translate(-13.762,-156.83592)" />
          <g
             style="fill:#291e02;fill-opacity:1;stroke:none;stroke-width:2.48594642;stroke-miterlimit:4;stroke-dasharray:none;stroke-opacity:1"
             id="g5007"
             transform="translate(-13.762,-156.83592)" />
          <g
             style="fill:#291e02;fill-opacity:1;stroke:none;stroke-width:2.48594642;stroke-miterlimit:4;stroke-dasharray:none;stroke-opacity:1"
             id="g5009"
             transform="translate(-13.762,-156.83592)" />
          <g
             style="fill:#291e02;fill-opacity:1;stroke:none;stroke-width:2.48594642;stroke-miterlimit:4;stroke-dasharray:none;stroke-opacity:1"
             id="g5011"
             transform="translate(-13.762,-156.83592)" />
          <g
             style="fill:#291e02;fill-opacity:1;stroke:none;stroke-width:2.48594642;stroke-miterlimit:4;stroke-dasharray:none;stroke-opacity:1"
             id="g5013"
             transform="translate(-13.762,-156.83592)" />
          <g
             style="fill:#291e02;fill-opacity:1;stroke:none;stroke-width:2.48594642;stroke-miterlimit:4;stroke-dasharray:none;stroke-opacity:1"
             id="g5015"
             transform="translate(-13.762,-156.83592)" />
          <g
             style="fill:#291e02;fill-opacity:1;stroke:none;stroke-width:2.48594642;stroke-miterlimit:4;stroke-dasharray:none;stroke-opacity:1"
             id="g5017"
             transform="translate(-13.762,-156.83592)" />
          <g
             style="fill:#291e02;fill-opacity:1;stroke:none;stroke-width:2.48594642;stroke-miterlimit:4;stroke-dasharray:none;stroke-opacity:1"
             id="g5019"
             transform="translate(-13.762,-156.83592)" />
          <g
             style="fill:#291e02;fill-opacity:1;stroke:none;stroke-width:2.48594642;stroke-miterlimit:4;stroke-dasharray:none;stroke-opacity:1"
             id="g5021"
             transform="translate(-13.762,-156.83592)" />
          <g
             style="fill:#291e02;fill-opacity:1;stroke:none;stroke-width:2.48594642;stroke-miterlimit:4;stroke-dasharray:none;stroke-opacity:1"
             id="g5023"
             transform="translate(-13.762,-156.83592)" />
          <g
             style="fill:#291e02;fill-opacity:1;stroke:none;stroke-width:2.48594642;stroke-miterlimit:4;stroke-dasharray:none;stroke-opacity:1"
             id="g5025"
             transform="translate(-13.762,-156.83592)" />
        </g>
      </g>
      <g
         style="fill:#f9f9f9;fill-opacity:1;stroke:none;stroke-opacity:1"
         id="g5648"
         transform="matrix(3.0741798,6.7268138e-8,-2.7728656e-8,3.0741868,325.07125,267.24811)">
        <g
           id="g5760"
           transform="matrix(0.19308571,0,0,0.19308528,0.44702387,1.1065504)"
           style="fill:#f9f9f9;fill-opacity:1;stroke:none;stroke-width:2.48594642;stroke-miterlimit:4;stroke-dasharray:none;stroke-opacity:1">
          <g
             style="fill:#f9f9f9;fill-opacity:1;stroke:none;stroke-width:2.48594642;stroke-miterlimit:4;stroke-dasharray:none;stroke-opacity:1"
             id="g3360">
            <path
               inkscape:connector-curvature="0"
               id="path7"
               d="M 76.148473,59.311556 C 57.65525,74.479001 33.444742,105.72183 12.912341,142.21797 l -0.01159,-0.0142 -3.5891015,6.33346 3.8271465,1.47251 2.022326,-5.3281 C 26.114864,124.93709 55.830943,73.373568 110.16673,39.114628 c 0,0 20.22906,-12.048112 40.16003,-28.710709 -4.85253,4.056238 -14.4254,9.140492 -19.61604,12.420452 -13.62331,8.607525 -30.43495,16.696829 -54.562247,36.487185 z"
               style="fill:#f9f9f9;fill-opacity:1;stroke:none;stroke-width:2.48594642;stroke-miterlimit:4;stroke-dasharray:none;stroke-opacity:1" />
            <path
               inkscape:connector-curvature="0"
               id="path9"
               d="m 10.236972,113.42142 c -4.2052795,14.86356 -3.9646016,26.18385 -2.3372612,29.29476 l 2.5437072,0 C 17.467314,128.16754 51.296509,75.466991 72.352925,58.970815 94.168766,41.878474 110.99726,31.933264 125.15091,24.680277 c 4.96997,-2.54634 10.06844,-5.995354 14.66607,-9.452794 5.58299,-4.402773 11.24287,-9.1120535 16.19862,-13.7207448 L 141.65024,10.927933 148.05533,1.1312386 135.82658,13.56591 143.78422,0 c -18.82554,1.6984378 -36.29549,11.117 -36.29549,11.117 -6.98914,8.289956 -12.617943,21.477734 -12.617943,21.477734 -0.194859,-6.594152 4.271111,-16.579387 4.271111,-16.579387 -3.299973,1.506738 -15.837867,8.66809 -15.837867,8.66809 -6.132809,5.087413 -8.037693,18.464257 -8.037693,18.464257 -1.165997,-5.27648 2.910254,-15.448148 2.910254,-15.448148 C 60.511258,37.874374 47.893314,55.206866 47.893314,55.206866 39.159393,72.350818 46.340757,85.727662 43.622203,82.525119 40.903649,79.322577 41.488228,67.641537 41.488228,67.641537 23.046616,85.352689 21.107501,93.828552 21.107501,93.828552 c -3.105113,7.536328 -5.823667,27.696388 -5.823667,27.696388 -1.747416,-1.88487 0,-12.43467 0,-12.43467 -4.465443,9.42119 -2.328835,18.27519 -2.328835,18.27519 -2.133975,-0.75574 -2.718027,-13.94404 -2.718027,-13.94404 z"
               style="fill:#f9f9f9;fill-opacity:1;stroke:none;stroke-width:2.48594642;stroke-miterlimit:4;stroke-dasharray:none;stroke-opacity:1" />
            <path
               inkscape:connector-curvature="0"
               id="path11"
               d="m 156.01824,7.4736531 c 0,0 -7.10079,6.8806479 -16.19862,13.7207449 C 125.55748,32.443059 111.82515,41.638323 111.82515,41.638323 58.027589,73.427812 28.05082,125.30627 18.143003,143.09431 l 5.267527,0 c 1.861698,-1.49252 4.657669,-2.61797 16.333442,-5.99799 14.75192,-4.27111 23.551671,-13.18778 23.551671,-13.18778 0,0 -13.457421,7.53633 -19.799308,6.78322 -6.341888,-0.7531 -14.86357,1.63261 -14.86357,1.63261 0,0 -3.254154,-1.50674 12.792792,-3.89298 16.046946,-2.38624 42.445673,-20.34649 42.445673,-20.34649 0,0 -10.09425,4.14471 -14.75192,3.76658 -4.657669,-0.37813 -16.175448,0 -16.175448,0 7.633754,-1.759 14.75192,-0.75311 26.398727,-5.15009 11.646807,-4.39697 10.999558,-4.01884 10.999558,-4.01884 13.199363,-4.396981 18.682293,-18.086126 18.682293,-18.086126 -2.28302,0.879501 -19.719262,3.013476 -26.951711,0.879501 -7.232975,-2.133976 -19.555471,0 -19.555471,0 11.646807,-3.892978 14.236333,-2.133976 17.080755,-2.259844 2.847056,-0.125869 12.036526,0.627237 30.283277,-5.651453 18.24675,-6.278691 23.42264,-14.067279 23.42264,-14.067279 l -12.30564,1.644193 c 8.03506,-1.351904 17.09234,-6.668409 17.09234,-6.668409 -5.56561,1.506738 -14.23633,2.259844 -14.23633,2.259844 10.22328,-2.259844 15.91792,-5.399716 15.91792,-5.399716 9.57603,-7.284586 11.77583,-18.086124 11.77583,-18.086124 -13.58908,4.646083 -24.32795,2.512108 -24.32795,2.512108 18.63647,-1.254474 23.81237,-6.029586 26.39873,-7.158192 2.58953,-1.131238 3.65493,-5.80892 3.65493,-5.80892 -9.4154,3.391609 -20.09159,3.955648 -20.09159,3.955648 11.54937,-1.790074 21.44613,-7.63112 21.44613,-7.63112 l 0,-5.84684 c -4.46544,2.543707 -12.32302,4.522848 -12.32302,4.522848 l 12.22822,-7.911824 c 0.68728,-3.9582815 -2.51526,-6.4071919 -2.51526,-6.4071919 z"
               style="fill:#f9f9f9;fill-opacity:1;stroke:none;stroke-width:2.48594642;stroke-miterlimit:4;stroke-dasharray:none;stroke-opacity:1" />
          </g>
          <g
             transform="translate(-13.762,-156.83592)"
             id="g17"
             style="fill:#f9f9f9;fill-opacity:1;stroke:none;stroke-width:2.48594642;stroke-miterlimit:4;stroke-dasharray:none;stroke-opacity:1" />
          <g
             transform="translate(-13.762,-156.83592)"
             id="g19"
             style="fill:#f9f9f9;fill-opacity:1;stroke:none;stroke-width:2.48594642;stroke-miterlimit:4;stroke-dasharray:none;stroke-opacity:1" />
          <g
             transform="translate(-13.762,-156.83592)"
             id="g21"
             style="fill:#f9f9f9;fill-opacity:1;stroke:none;stroke-width:2.48594642;stroke-miterlimit:4;stroke-dasharray:none;stroke-opacity:1" />
          <g
             transform="translate(-13.762,-156.83592)"
             id="g23"
             style="fill:#f9f9f9;fill-opacity:1;stroke:none;stroke-width:2.48594642;stroke-miterlimit:4;stroke-dasharray:none;stroke-opacity:1" />
          <g
             transform="translate(-13.762,-156.83592)"
             id="g25"
             style="fill:#f9f9f9;fill-opacity:1;stroke:none;stroke-width:2.48594642;stroke-miterlimit:4;stroke-dasharray:none;stroke-opacity:1" />
          <g
             transform="translate(-13.762,-156.83592)"
             id="g27"
             style="fill:#f9f9f9;fill-opacity:1;stroke:none;stroke-width:2.48594642;stroke-miterlimit:4;stroke-dasharray:none;stroke-opacity:1" />
          <g
             transform="translate(-13.762,-156.83592)"
             id="g29"
             style="fill:#f9f9f9;fill-opacity:1;stroke:none;stroke-width:2.48594642;stroke-miterlimit:4;stroke-dasharray:none;stroke-opacity:1" />
          <g
             transform="translate(-13.762,-156.83592)"
             id="g31"
             style="fill:#f9f9f9;fill-opacity:1;stroke:none;stroke-width:2.48594642;stroke-miterlimit:4;stroke-dasharray:none;stroke-opacity:1" />
          <g
             transform="translate(-13.762,-156.83592)"
             id="g33"
             style="fill:#f9f9f9;fill-opacity:1;stroke:none;stroke-width:2.48594642;stroke-miterlimit:4;stroke-dasharray:none;stroke-opacity:1" />
          <g
             transform="translate(-13.762,-156.83592)"
             id="g35"
             style="fill:#f9f9f9;fill-opacity:1;stroke:none;stroke-width:2.48594642;stroke-miterlimit:4;stroke-dasharray:none;stroke-opacity:1" />
          <g
             transform="translate(-13.762,-156.83592)"
             id="g37"
             style="fill:#f9f9f9;fill-opacity:1;stroke:none;stroke-width:2.48594642;stroke-miterlimit:4;stroke-dasharray:none;stroke-opacity:1" />
          <g
             transform="translate(-13.762,-156.83592)"
             id="g39"
             style="fill:#f9f9f9;fill-opacity:1;stroke:none;stroke-width:2.48594642;stroke-miterlimit:4;stroke-dasharray:none;stroke-opacity:1" />
          <g
             transform="translate(-13.762,-156.83592)"
             id="g41"
             style="fill:#f9f9f9;fill-opacity:1;stroke:none;stroke-width:2.48594642;stroke-miterlimit:4;stroke-dasharray:none;stroke-opacity:1" />
          <g
             transform="translate(-13.762,-156.83592)"
             id="g43"
             style="fill:#f9f9f9;fill-opacity:1;stroke:none;stroke-width:2.48594642;stroke-miterlimit:4;stroke-dasharray:none;stroke-opacity:1" />
          <g
             transform="translate(-13.762,-156.83592)"
             id="g45"
             style="fill:#f9f9f9;fill-opacity:1;stroke:none;stroke-width:2.48594642;stroke-miterlimit:4;stroke-dasharray:none;stroke-opacity:1" />
        </g>
      </g>
    </g>
  </g>
</svg>
