<?xml version="1.0" encoding="UTF-8" standalone="no"?>
<!-- Created with Inkscape (http://www.inkscape.org/) -->

<svg
   xmlns:dc="http://purl.org/dc/elements/1.1/"
   xmlns:cc="http://creativecommons.org/ns#"
   xmlns:rdf="http://www.w3.org/1999/02/22-rdf-syntax-ns#"
   xmlns:svg="http://www.w3.org/2000/svg"
   xmlns="http://www.w3.org/2000/svg"
   xmlns:sodipodi="http://sodipodi.sourceforge.net/DTD/sodipodi-0.dtd"
   xmlns:inkscape="http://www.inkscape.org/namespaces/inkscape"
   width="91.123863"
   height="37"
   viewBox="0 0 91.123868 37"
   id="svg2"
   version="1.1"
   inkscape:version="0.91 r13725"
   sodipodi:docname="logo-horizontal.svg">
  <defs
     id="defs4" />
  <sodipodi:namedview
     id="base"
     pagecolor="#ffffff"
     bordercolor="#666666"
     borderopacity="1.0"
     inkscape:pageopacity="0.0"
     inkscape:pageshadow="2"
     inkscape:zoom="0.7"
     inkscape:cx="372.68965"
     inkscape:cy="55.655548"
     inkscape:document-units="px"
     inkscape:current-layer="layer1"
     showgrid="false"
     inkscape:object-paths="true"
     inkscape:snap-intersection-paths="true"
     inkscape:object-nodes="true"
     inkscape:window-width="1920"
     inkscape:window-height="1080"
     inkscape:window-x="1366"
     inkscape:window-y="0"
     inkscape:window-maximized="0"
     showguides="false"
     fit-margin-top="0"
     fit-margin-left="0"
     fit-margin-right="0"
     fit-margin-bottom="0"
     inkscape:snap-bbox="true"
     inkscape:bbox-nodes="true"
     inkscape:bbox-paths="true"
     units="px" />
  <metadata
     id="metadata7">
    <rdf:RDF>
      <cc:Work
         rdf:about="">
        <dc:format>image/svg+xml</dc:format>
        <dc:type
           rdf:resource="http://purl.org/dc/dcmitype/StillImage" />
        <dc:title></dc:title>
      </cc:Work>
    </rdf:RDF>
  </metadata>
  <g
     inkscape:label="Layer 1"
     inkscape:groupmode="layer"
     id="layer1"
     transform="translate(-200.12278,-745.69279)">
    <g
       id="g6664"
       transform="matrix(0.1420322,0,0,0.1420322,171.6989,671.52521)">
      <path
         sodipodi:nodetypes="cc"
         inkscape:connector-curvature="0"
         id="path3417"
         d="m 236.73563,662.64584 c -16.04856,34.86621 -44.77405,57.63171 -33.59961,118.48351 l 43.39,-36.47729 z"
         style="fill:#000000;fill-rule:evenodd;stroke:#000000;stroke-width:1px;stroke-linecap:butt;stroke-linejoin:miter;stroke-opacity:1" />
      <path
         style="fill:#000000;fill-rule:evenodd;stroke:#000000;stroke-width:1px;stroke-linecap:butt;stroke-linejoin:miter;stroke-opacity:1"
         d="m 362.44167,662.64584 c 16.04856,34.86621 18.51008,65.71293 83.09708,105.8566 l -45.86462,-11.77649 -26.6375,-34.35242 23.783,56.39558 -12.20048,3.37386 -32.47295,-25.87416 z"
         id="path4261"
         inkscape:connector-curvature="0"
         sodipodi:nodetypes="cccccccc" />
      <path
         sodipodi:nodetypes="cssssccssssssssssscc"
         inkscape:connector-curvature="0"
         id="path4271"
         d="m 328.7361,612.6502 c 0,0 5.64227,1.64142 6.33252,-3.74496 0.85199,-6.64852 1.52613,-13.21114 2.05954,-19.43778 0.0445,-0.5193 -5.84665,1.67851 -5.8041,1.16403 0.0506,-0.61158 6.03446,-3.93444 6.08237,-4.53876 1.75976,-22.19629 1.74341,-39.33218 1.74341,-39.33218 L 322.4869,522.79232 c 0,0 -5.64856,2.10161 -10.39787,7.71319 -0.44932,0.5309 3.59195,9.61639 3.16426,10.21132 -0.31682,0.44073 -5.10874,-7.62382 -5.40839,-7.14682 -0.72175,1.14891 -1.38714,2.40446 -1.96468,3.77342 -0.21179,0.50202 1.77573,14.94787 1.58912,15.48072 -0.2107,0.60163 -2.59185,-12.70544 -2.76622,-12.0636 -1.335,4.91393 -1.53414,16.89477 -1.633,27.21568 -0.005,0.55738 5.79451,6.12609 5.78959,6.6724 -0.007,0.75688 -5.81827,-3.51435 -5.82502,-2.78499 -0.007,0.76457 -0.0144,1.51202 -0.0223,2.23813 -0.0969,8.8131 -0.17857,15.55201 -0.40037,19.33106 -0.13492,2.29893 2.06027,4.34156 1.7867,4.25037 z"
         style="fill:#d0ffff;fill-opacity:1;fill-rule:evenodd;stroke:#000000;stroke-width:1px;stroke-linecap:butt;stroke-linejoin:miter;stroke-opacity:1" />
      <path
         sodipodi:nodetypes="csssssssssssssc"
         inkscape:connector-curvature="0"
         id="path4238"
         d="m 267.84534,608.81987 c -1.62254,-3.83044 -3.33067,-8.61159 -4.85622,-13.95815 -0.19125,-0.67027 7.32279,2.81746 7.13781,2.13018 -0.16799,-0.62414 -8.03559,-5.42186 -8.19757,-6.05884 -3.40516,-13.39002 -5.39711,-29.49051 -2.29986,-43.02022 4.88305,-21.33062 20.09113,-18.38239 23.73859,-5.05076 0.14556,0.53204 -2.6553,4.0092 -2.50974,4.53863 0.14602,0.53108 3.23846,-1.88556 3.38447,-1.35706 1.16033,4.1998 2.32066,8.31875 3.48099,12.36649 0.0851,0.29697 -5.49938,13.31678 -5.41425,13.61299 0.17662,0.61454 6.02288,-11.49577 6.1995,-10.88446 1.72684,5.97693 3.45369,11.80097 5.18053,17.50394 0.15452,0.51029 -3.03709,2.47172 -2.88258,2.9801 0.21971,0.72287 3.78555,-0.008 4.00526,0.71083 1.64828,5.39486 3.29657,10.6857 4.94485,15.90019"
         style="fill:#d0ffff;fill-opacity:1;fill-rule:evenodd;stroke:#000000;stroke-width:1px;stroke-linecap:butt;stroke-linejoin:miter;stroke-opacity:1" />
      <path
         inkscape:connector-curvature="0"
         id="ellipse3378"
         d="m 299.75712,598.23373 a 64.397224,80.559662 0 0 0 -64.39844,80.55859 64.397224,80.559662 0 0 0 0.16797,5.75977 71.720833,54.800774 0 0 1 64.58398,-31.125 71.720833,54.800774 0 0 1 63.86328,29.86914 64.397224,80.559662 0 0 0 0.17969,-4.50391 64.397224,80.559662 0 0 0 -64.39648,-80.55859 z"
         style="color:#000000;clip-rule:nonzero;display:inline;overflow:visible;visibility:visible;opacity:1;isolation:auto;mix-blend-mode:normal;color-interpolation:sRGB;color-interpolation-filters:linearRGB;solid-color:#000000;solid-opacity:1;fill:#000000;fill-opacity:1;fill-rule:nonzero;stroke:#000000;stroke-width:0.99999994px;stroke-linecap:butt;stroke-linejoin:miter;stroke-miterlimit:4;stroke-dasharray:none;stroke-dashoffset:0;stroke-opacity:1;color-rendering:auto;image-rendering:auto;shape-rendering:auto;text-rendering:auto;enable-background:accumulate" />
      <path
         sodipodi:nodetypes="sssssss"
         inkscape:connector-curvature="0"
         id="path3342"
         d="m 363.61721,708.2271 c 0,30.26563 -28.59276,54.80077 -63.8637,54.80077 -35.27094,0 -63.86369,-24.53514 -63.86369,-54.80077 0,-3.59231 -1.02576,-25.67531 -0.25678,-29.07471 5.70978,-25.24098 33.03592,-25.72607 64.12047,-25.72607 26.88197,0 52.74184,-7.17655 62.16325,13.00225 2.94011,6.29714 1.70045,34.60004 1.70045,41.79853 z"
         style="color:#000000;clip-rule:nonzero;display:inline;overflow:visible;visibility:visible;opacity:1;isolation:auto;mix-blend-mode:normal;color-interpolation:sRGB;color-interpolation-filters:linearRGB;solid-color:#000000;solid-opacity:1;fill:#ffccaa;fill-opacity:1;fill-rule:nonzero;stroke:#000000;stroke-width:0.99999988px;stroke-linecap:butt;stroke-linejoin:miter;stroke-miterlimit:4;stroke-dasharray:none;stroke-dashoffset:0;stroke-opacity:1;color-rendering:auto;image-rendering:auto;shape-rendering:auto;text-rendering:auto;enable-background:accumulate" />
      <path
         style="fill:none;fill-rule:evenodd;stroke:#000000;stroke-width:0.99999994px;stroke-linecap:butt;stroke-linejoin:miter;stroke-opacity:1"
         d="m 258.58228,710.6065 c 7.75416,1.80904 19.94507,2.09909 28.38658,0"
         id="path3346"
         inkscape:connector-curvature="0"
         sodipodi:nodetypes="cc" />
      <path
         sodipodi:nodetypes="cc"
         inkscape:connector-curvature="0"
         id="path3354"
         d="m 343.37197,710.6065 c -7.75417,1.80904 -19.94507,2.09909 -28.38659,0"
         style="fill:none;fill-rule:evenodd;stroke:#000000;stroke-width:0.99999994px;stroke-linecap:butt;stroke-linejoin:miter;stroke-opacity:1" />
      <path
         style="fill:none;fill-rule:evenodd;stroke:#000000;stroke-width:1px;stroke-linecap:butt;stroke-linejoin:miter;stroke-opacity:1"
         d="m 280.48221,736.13237 c 11.49415,8.06221 24.15901,11.78726 41.01102,0"
         id="path3360"
         inkscape:connector-curvature="0"
         sodipodi:nodetypes="cc" />
      <path
         inkscape:connector-curvature="0"
         id="ellipse3405"
         d="m 300.11063,633.42709 a 71.720833,54.800774 0 0 0 -63.375,29.21875 64.397224,80.559662 0 0 0 -1.37695,16.14648 64.397224,80.559662 0 0 0 0.16797,5.75977 71.720833,54.800774 0 0 1 0.29883,-0.41993 71.720833,54.800774 0 0 1 2.55078,-3.59765 71.720833,54.800774 0 0 1 0.95312,-1.23438 71.720833,54.800774 0 0 1 2.9336,-3.29882 71.720833,54.800774 0 0 1 1.16992,-1.2168 71.720833,54.800774 0 0 1 3.26758,-2.98633 71.720833,54.800774 0 0 1 1.42968,-1.21289 71.720833,54.800774 0 0 1 3.55469,-2.6543 71.720833,54.800774 0 0 1 1.63672,-1.13672 71.720833,54.800774 0 0 1 3.80273,-2.32031 71.720833,54.800774 0 0 1 1.90626,-1.08008 71.720833,54.800774 0 0 1 3.90234,-1.92773 71.720833,54.800774 0 0 1 2.23242,-1.01758 71.720833,54.800774 0 0 1 3.9668,-1.55273 71.720833,54.800774 0 0 1 2.5,-0.89453 71.720833,54.800774 0 0 1 3.99414,-1.19922 71.720833,54.800774 0 0 1 2.78125,-0.7461 71.720833,54.800774 0 0 1 3.92187,-0.84179 71.720833,54.800774 0 0 1 3.08399,-0.57032 71.720833,54.800774 0 0 1 3.83789,-0.51562 71.720833,54.800774 0 0 1 3.28125,-0.34766 71.720833,54.800774 0 0 1 4.23242,-0.24023 71.720833,54.800774 0 0 1 3.3457,-0.11328 71.720833,54.800774 0 0 1 63.86328,29.86914 64.397224,80.559662 0 0 0 0.17969,-4.50391 64.397224,80.559662 0 0 0 -1.57422,-17.42578 71.720833,54.800774 0 0 0 -62.46875,-27.93945 z"
         style="color:#000000;clip-rule:nonzero;display:inline;overflow:visible;visibility:visible;opacity:1;isolation:auto;mix-blend-mode:normal;color-interpolation:sRGB;color-interpolation-filters:linearRGB;solid-color:#000000;solid-opacity:1;fill:#ffb200;fill-opacity:1;fill-rule:nonzero;stroke:#000000;stroke-width:0.99999994px;stroke-linecap:butt;stroke-linejoin:miter;stroke-miterlimit:4;stroke-dasharray:none;stroke-dashoffset:0;stroke-opacity:1;color-rendering:auto;image-rendering:auto;shape-rendering:auto;text-rendering:auto;enable-background:accumulate" />
      <path
         sodipodi:nodetypes="cccccc"
         inkscape:connector-curvature="0"
         id="path3415"
         d="m 282.18724,655.16512 -9.26301,25.06583 -14.85088,0 0,0 -27.16592,13.60394 c 8.20885,-12.08631 14.87274,-35.55562 51.27981,-38.66977 z"
         style="fill:#000000;fill-rule:evenodd;stroke:#000000;stroke-width:1px;stroke-linecap:butt;stroke-linejoin:miter;stroke-opacity:1" />
      <path
         d="m 244.5394,707.61565 a 11.227097,12.868809 0 0 1 -12.53588,-1.34739 11.227097,12.868809 0 0 1 -3.56116,-13.84272 11.227097,12.868809 0 0 1 9.89243,-8.92807"
         sodipodi:open="true"
         sodipodi:end="4.6406654"
         sodipodi:start="1.0690198"
         sodipodi:ry="12.868809"
         sodipodi:rx="11.227097"
         sodipodi:cy="696.33319"
         sodipodi:cx="239.13934"
         sodipodi:type="arc"
         id="path4228"
         style="color:#000000;clip-rule:nonzero;display:inline;overflow:visible;visibility:visible;opacity:1;isolation:auto;mix-blend-mode:normal;color-interpolation:sRGB;color-interpolation-filters:linearRGB;solid-color:#000000;solid-opacity:1;fill:#ffccaa;fill-opacity:1;fill-rule:nonzero;stroke:#000000;stroke-width:1;stroke-linecap:butt;stroke-linejoin:miter;stroke-miterlimit:4;stroke-dasharray:none;stroke-dashoffset:0;stroke-opacity:1;color-rendering:auto;image-rendering:auto;shape-rendering:auto;text-rendering:auto;enable-background:accumulate" />
      <path
         transform="scale(-1,1)"
         style="color:#000000;clip-rule:nonzero;display:inline;overflow:visible;visibility:visible;opacity:1;isolation:auto;mix-blend-mode:normal;color-interpolation:sRGB;color-interpolation-filters:linearRGB;solid-color:#000000;solid-opacity:1;fill:#ffccaa;fill-opacity:1;fill-rule:nonzero;stroke:#000000;stroke-width:1;stroke-linecap:butt;stroke-linejoin:miter;stroke-miterlimit:4;stroke-dasharray:none;stroke-dashoffset:0;stroke-opacity:1;color-rendering:auto;image-rendering:auto;shape-rendering:auto;text-rendering:auto;enable-background:accumulate"
         id="path4230"
         sodipodi:type="arc"
         sodipodi:cx="-361.19397"
         sodipodi:cy="696.33319"
         sodipodi:rx="11.227097"
         sodipodi:ry="12.868809"
         sodipodi:start="1.0690198"
         sodipodi:end="4.6406654"
         sodipodi:open="true"
         d="m -355.79392,707.61565 a 11.227097,12.868809 0 0 1 -12.53588,-1.34739 11.227097,12.868809 0 0 1 -3.56115,-13.84272 11.227097,12.868809 0 0 1 9.89242,-8.92807" />
      <path
         inkscape:connector-curvature="0"
         id="path4232"
         d="m 281.75455,733.88708 -3.27234,4.24529"
         style="fill:none;fill-rule:evenodd;stroke:#000000;stroke-width:1px;stroke-linecap:butt;stroke-linejoin:miter;stroke-opacity:1" />
      <path
         style="fill:none;fill-rule:evenodd;stroke:#000000;stroke-width:1px;stroke-linecap:butt;stroke-linejoin:miter;stroke-opacity:1"
         d="m 319.88892,733.88966 3.25594,4.25789"
         id="path4236"
         inkscape:connector-curvature="0" />
      <path
         sodipodi:nodetypes="cc"
         inkscape:connector-curvature="0"
         id="path4240"
         d="m 283.89084,600.71676 c -4.11138,-11.14089 -9.88385,-29.8792 -11.65473,-42.743"
         style="fill:none;fill-rule:evenodd;stroke:#000000;stroke-width:1px;stroke-linecap:butt;stroke-linejoin:miter;stroke-opacity:1" />
      <path
         d="m -369.35758,695.29585 a 7.1087456,8.2335463 0 0 1 6.54212,-7.17003"
         sodipodi:open="true"
         sodipodi:end="4.6406654"
         sodipodi:start="3.2685313"
         sodipodi:ry="8.2335463"
         sodipodi:rx="7.1087456"
         sodipodi:cy="696.3382"
         sodipodi:cx="-362.30603"
         sodipodi:type="arc"
         id="path4242"
         style="color:#000000;clip-rule:nonzero;display:inline;overflow:visible;visibility:visible;opacity:1;isolation:auto;mix-blend-mode:normal;color-interpolation:sRGB;color-interpolation-filters:linearRGB;solid-color:#000000;solid-opacity:1;fill:#ffffff;fill-opacity:1;fill-rule:nonzero;stroke:#000000;stroke-width:1;stroke-linecap:butt;stroke-linejoin:miter;stroke-miterlimit:4;stroke-dasharray:none;stroke-dashoffset:0;stroke-opacity:1;color-rendering:auto;image-rendering:auto;shape-rendering:auto;text-rendering:auto;enable-background:accumulate"
         transform="scale(-1,1)" />
      <path
         sodipodi:nodetypes="cc"
         inkscape:connector-curvature="0"
         id="path4244"
         d="m 367.06235,690.21909 c -2.99495,1.87645 -3.62119,4.46352 -3.26246,7.34608"
         style="fill:none;fill-rule:evenodd;stroke:#000000;stroke-width:1px;stroke-linecap:butt;stroke-linejoin:miter;stroke-opacity:1" />
      <path
         style="color:#000000;clip-rule:nonzero;display:inline;overflow:visible;visibility:visible;opacity:1;isolation:auto;mix-blend-mode:normal;color-interpolation:sRGB;color-interpolation-filters:linearRGB;solid-color:#000000;solid-opacity:1;fill:#ffffff;fill-opacity:1;fill-rule:nonzero;stroke:#000000;stroke-width:1;stroke-linecap:butt;stroke-linejoin:miter;stroke-miterlimit:4;stroke-dasharray:none;stroke-dashoffset:0;stroke-opacity:1;color-rendering:auto;image-rendering:auto;shape-rendering:auto;text-rendering:auto;enable-background:accumulate"
         id="path4246"
         sodipodi:type="arc"
         sodipodi:cx="237.82251"
         sodipodi:cy="696.3382"
         sodipodi:rx="7.1087456"
         sodipodi:ry="8.2335463"
         sodipodi:start="3.2685313"
         sodipodi:end="4.6406654"
         sodipodi:open="true"
         d="m 230.77096,695.29585 a 7.1087456,8.2335463 0 0 1 6.54212,-7.17003" />
      <path
         style="fill:none;fill-rule:evenodd;stroke:#000000;stroke-width:1px;stroke-linecap:butt;stroke-linejoin:miter;stroke-opacity:1"
         d="m 233.06624,690.21909 c 2.99495,1.87645 3.62119,4.46352 3.26246,7.34608"
         id="path4248"
         inkscape:connector-curvature="0"
         sodipodi:nodetypes="cc" />
      <path
         sodipodi:nodetypes="ccc"
         inkscape:connector-curvature="0"
         d="m 291.75054,689.68819 c -18.90284,-9.36828 -23.10897,-6.40768 -36.00191,0 13.63574,-5.36776 19.52631,-5.97014 36.00191,0 z"
         style="fill:#000000;fill-rule:evenodd;stroke:#000000;stroke-width:1px;stroke-linecap:butt;stroke-linejoin:miter;stroke-opacity:1"
         id="path4254" />
      <path
         id="path4257"
         style="fill:#000000;fill-rule:evenodd;stroke:#000000;stroke-width:1px;stroke-linecap:butt;stroke-linejoin:miter;stroke-opacity:1"
         d="m 311.74813,689.68819 c 18.90284,-9.36828 23.10897,-6.40768 36.00191,0 -13.63574,-5.36776 -19.52631,-5.97014 -36.00191,0 z"
         inkscape:connector-curvature="0"
         sodipodi:nodetypes="ccc" />
      <path
         style="fill:#000000;fill-rule:evenodd;stroke:#000000;stroke-width:1px;stroke-linecap:butt;stroke-linejoin:miter;stroke-opacity:1"
         d="m 318.15788,655.16512 9.26301,25.06583 14.85088,0 0,0 27.16592,13.60394 c -8.20885,-12.08631 -14.87274,-35.55562 -51.27981,-38.66977 z"
         id="path4259"
         inkscape:connector-curvature="0"
         sodipodi:nodetypes="cccccc" />
      <path
         sodipodi:nodetypes="ccccc"
         inkscape:connector-curvature="0"
         id="path4263"
         d="m 274.62772,725.53879 0.35715,-6.42857 -20.53572,18.57143 0.0925,5.52807 z"
         style="fill:#008000;fill-rule:evenodd;stroke:none;stroke-width:1px;stroke-linecap:butt;stroke-linejoin:miter;stroke-opacity:1" />
      <path
         style="fill:#008000;fill-rule:evenodd;stroke:none;stroke-width:1px;stroke-linecap:butt;stroke-linejoin:miter;stroke-opacity:1"
         d="m 268.62772,719.53879 0.35715,-6.42857 -20.53572,18.57143 0.0925,5.52807 z"
         id="path4265"
         inkscape:connector-curvature="0"
         sodipodi:nodetypes="ccccc" />
      <path
         style="fill:#008000;fill-rule:evenodd;stroke:none;stroke-width:1px;stroke-linecap:butt;stroke-linejoin:miter;stroke-opacity:1"
         d="m 322.86927,725.53879 -0.35715,-6.42857 20.53572,18.57143 -0.0925,5.52807 z"
         id="path4267"
         inkscape:connector-curvature="0"
         sodipodi:nodetypes="ccccc" />
      <path
         sodipodi:nodetypes="ccccc"
         inkscape:connector-curvature="0"
         id="path4269"
         d="m 328.86927,719.53879 -0.35715,-6.42857 20.53572,18.57143 -0.0925,5.52807 z"
         style="fill:#008000;fill-rule:evenodd;stroke:none;stroke-width:1px;stroke-linecap:butt;stroke-linejoin:miter;stroke-opacity:1" />
      <path
         sodipodi:nodetypes="cc"
         inkscape:connector-curvature="0"
         id="path4273"
         d="m 317.74669,603.50306 c 2.51135,-16.87876 5.35351,-33.55904 4.6138,-52.38844"
         style="fill:none;fill-rule:evenodd;stroke:#000000;stroke-width:1px;stroke-linecap:butt;stroke-linejoin:miter;stroke-opacity:1" />
      <path
         inkscape:connector-curvature="0"
         id="path4275"
         d="m 300.11133,633.42773 a 71.720833,54.800774 0 0 0 -14.5586,1.16016 l 9.16016,18.8457 11.06445,-19.78515 a 71.720833,54.800774 0 0 0 -5.66601,-0.22071 z m 5.71875,0.22461 12.32812,21.51368 9.14258,-17.56836 a 71.720833,54.800774 0 0 0 -21.4707,-3.94532 z m -20.29297,0.93946 a 71.720833,54.800774 0 0 0 -27.19531,9.17578 l 11.63672,13.42969 15.55859,-22.60547 z m 41.82031,3.02343 7.9336,21.08985 4.58984,-15.98828 a 71.720833,54.800774 0 0 0 -12.52344,-5.10157 z m 12.56446,5.12305 5.80664,21.09766 5.40625,-13.9961 a 71.720833,54.800774 0 0 0 -11.21289,-7.10156 z m -81.64063,1.06445 a 71.720833,54.800774 0 0 0 -21.54492,18.84375 64.397224,80.559662 0 0 0 -0.0312,0.25 l 13.55078,4.17188 8.02539,-23.26563 z m 92.89453,6.07032 3.00586,21.05859 5.08594,-13.58008 a 71.720833,54.800774 0 0 0 -8.0918,-7.47851 z m 8.1211,7.51172 4.67773,25.91211 -1.39453,-21.92969 a 71.720833,54.800774 0 0 0 -3.2832,-3.98242 z"
         style="fill:#ba0000;fill-opacity:1;fill-rule:evenodd;stroke:#000000;stroke-width:1px;stroke-linecap:butt;stroke-linejoin:miter;stroke-opacity:1" />
      <g
         transform="matrix(1.8141966,0,0,1.8141966,103.51954,-878.24866)"
         id="g4380">
        <text
           xml:space="preserve"
           style="font-style:normal;font-variant:normal;font-weight:bold;font-stretch:ultra-condensed;font-size:82.67749786px;line-height:100%;font-family:Antonio;-inkscape-font-specification:'Antonio Bold Ultra-Condensed';text-align:start;letter-spacing:-4.24641275px;word-spacing:0px;writing-mode:lr-tb;text-anchor:start;fill:#000000;fill-opacity:1;stroke:none;stroke-width:1px;stroke-linecap:butt;stroke-linejoin:miter;stroke-opacity:1"
           x="187.44604"
           y="856.29248"
           id="text4323"
           sodipodi:linespacing="100%"><tspan
             sodipodi:role="line"
             id="tspan4325"
             x="187.44604"
             y="856.29248"
             style="font-style:normal;font-variant:normal;font-weight:bold;font-stretch:ultra-condensed;font-size:82.67749786px;line-height:100%;font-family:Antonio;-inkscape-font-specification:'Antonio Bold Ultra-Condensed';text-align:start;letter-spacing:-4.24641275px;writing-mode:lr-tb;text-anchor:start;fill:#000000">ARANDU</tspan></text>
        <text
           sodipodi:linespacing="100%"
           id="text4376"
           y="1124.827"
           x="147.5027"
           style="font-style:normal;font-variant:normal;font-weight:300;font-stretch:ultra-condensed;font-size:66.47816467px;line-height:100%;font-family:Antonio;-inkscape-font-specification:'Antonio Light Ultra-Condensed';text-align:start;letter-spacing:-3.41439605px;word-spacing:0px;writing-mode:lr-tb;text-anchor:start;fill:#333333;fill-opacity:1;stroke:none;stroke-width:1px;stroke-linecap:butt;stroke-linejoin:miter;stroke-opacity:1"
           xml:space="preserve"
           transform="scale(1.2436791,0.80406594)"><tspan
             style="font-style:normal;font-variant:normal;font-weight:300;font-stretch:ultra-condensed;font-size:66.47816467px;line-height:100%;font-family:Antonio;-inkscape-font-specification:'Antonio Light Ultra-Condensed';text-align:start;letter-spacing:-3.41439605px;writing-mode:lr-tb;text-anchor:start;fill:#333333"
             y="1124.827"
             x="147.5027"
             id="tspan4378"
             sodipodi:role="line">ACADEMY</tspan></text>
      </g>
    </g>
  </g>
</svg>
