<?xml version="1.0" encoding="UTF-8" standalone="no"?>
<svg
   xmlns:dc="http://purl.org/dc/elements/1.1/"
   xmlns:cc="http://creativecommons.org/ns#"
   xmlns:rdf="http://www.w3.org/1999/02/22-rdf-syntax-ns#"
   xmlns:svg="http://www.w3.org/2000/svg"
   xmlns="http://www.w3.org/2000/svg"
   xmlns:sodipodi="http://sodipodi.sourceforge.net/DTD/sodipodi-0.dtd"
   xmlns:inkscape="http://www.inkscape.org/namespaces/inkscape"
   height="14"
   width="14"
   id="svg2"
   version="1.1"
   inkscape:version="0.91 r13725"
   sodipodi:docname="microscope-icon.svg">
  <metadata
     id="metadata10">
    <rdf:RDF>
      <cc:Work
         rdf:about="">
        <dc:format>image/svg+xml</dc:format>
        <dc:type
           rdf:resource="http://purl.org/dc/dcmitype/StillImage" />
        <dc:title></dc:title>
      </cc:Work>
    </rdf:RDF>
  </metadata>
  <defs
     id="defs8" />
  <sodipodi:namedview
     pagecolor="#ffffff"
     bordercolor="#666666"
     borderopacity="1"
     objecttolerance="10"
     gridtolerance="10"
     guidetolerance="10"
     inkscape:pageopacity="0"
     inkscape:pageshadow="2"
     inkscape:window-width="1366"
     inkscape:window-height="768"
     id="namedview6"
     showgrid="false"
     inkscape:zoom="18.486457"
     inkscape:cx="18.904769"
     inkscape:cy="15.819435"
     inkscape:window-x="0"
     inkscape:window-y="0"
     inkscape:window-maximized="0"
     inkscape:current-layer="svg2" />
  <path
     d="M 10.185547,12.25 C 11.365595,11.993653 12.25,10.882813 12.25,9.6250001 12.25,8.8260432 11.885987,8.1193847 11.322022,7.637451 11.354492,7.4289549 11.375002,7.2170409 11.375002,6.9999999 11.375002,5.5665858 10.693118,4.2946776 9.625003,3.5 l 0.874999,-0.875 0,-0.8749999 0.875,-0.87500004 L 10.500002,0 9.625003,0.87500006 l -0.8750004,0 -3.5,3.49999994 -1.75,0.875 0,1.7499999 0.875,0.875 1.7500001,0 0.8749998,-1.75 1.3125001,-1.3125 c 0.7587892,0.4567228 1.3125004,1.2364571 1.3125004,2.1875 -1.4500669,0 -2.6250005,1.1749336 -2.6250005,2.6250002 l -5.2499998,0 0,0.8749999 2.6249999,0 c 0.2614747,0.194824 0.5750664,0.30249 0.875,0.4375 l 0,1.3125 -1.75,0 L 1.75,14 12.249999,14 10.5,12.25 l -0.314454,0 z M 8.7500009,9.6250001 c 0,-0.4836429 0.3913571,-0.875 0.8750001,-0.875 0.483642,0 0.875,0.3913571 0.875,0.875 0,0.4827819 -0.391358,0.8749999 -0.875,0.8749999 -0.483643,0 -0.8750001,-0.392218 -0.8750001,-0.8749999 z"
     id="path4"
     inkscape:connector-curvature="0"
     style="fill:#333333;fill-opacity:1" />
</svg>
